<?xml version="1.0" encoding="UTF-8" standalone="no"?>
<!-- Created with Inkscape (http://www.inkscape.org/) -->

<svg
   width="1056.5236mm"
   height="774.44263mm"
   viewBox="0 0 1056.5236 774.44263"
   version="1.1"
   id="svg1226"
   inkscape:version="1.1.2 (0a00cf5339, 2022-02-04)"
   sodipodi:docname="cubierta.svg"
   xmlns:inkscape="http://www.inkscape.org/namespaces/inkscape"
   xmlns:sodipodi="http://sodipodi.sourceforge.net/DTD/sodipodi-0.dtd"
   xmlns="http://www.w3.org/2000/svg"
   xmlns:svg="http://www.w3.org/2000/svg">
  <sodipodi:namedview
     id="namedview1228"
     pagecolor="#ffffff"
     bordercolor="#666666"
     borderopacity="1.0"
     inkscape:pageshadow="2"
     inkscape:pageopacity="0.0"
     inkscape:pagecheckerboard="0"
     inkscape:document-units="mm"
     showgrid="false"
     fit-margin-top="0"
     fit-margin-left="0"
     fit-margin-right="0"
     fit-margin-bottom="0"
     inkscape:zoom="0.20283687"
     inkscape:cx="2127.3252"
     inkscape:cy="1833.9861"
     inkscape:window-width="1920"
     inkscape:window-height="1051"
     inkscape:window-x="2560"
     inkscape:window-y="0"
     inkscape:window-maximized="1"
     inkscape:current-layer="layer1" />
  <defs
     id="defs1223" />
  <g
     inkscape:label="Capa 1"
     inkscape:groupmode="layer"
     id="layer1"
     transform="translate(457.70121,336.03033)">
    <path
       id="path-1-9"
       style="fill:#ececec;stroke-width:0.822042;stroke-linecap:round;stroke-linejoin:bevel;paint-order:markers fill stroke"
       d="m -316.23729,179.37155 c -3.86372,1.26163 -4.33924,5.17249 -5.86209,9.6865 -15.80991,-33.94411 -20.77186,-145.47237 -24.85717,-154.82235 0.35421,-3.96504 22.89288,136.23104 30.71926,145.13585 z M 62.925688,-326.3266 c 2.315999,17.69372 -5.957694,33.00146 -15.308612,50.09257 -37.117976,67.84237 -222.297976,112.76657 -254.213876,123.88172 -214.53192,74.71367 -254.5569,174.6462 -250.88148,217.7404 4.06107,14.66548 5.15583,13.21625 7.29404,1.77374 21.3415,-114.20754 151.89009,-179.71607 220.21631,-202.83532 120.29964,-40.70527 297.549616,-71.61436 292.893618,-190.65311 z m -79.922128,159.86908 c -75.94847,32.95448 -115.21177,31.8806 -183.08008,62.76108 -68.88715,28.13046 -132.50485,66.71984 -179.61783,125.0394 -11.12105,16.8596 -40.08557,79.96426 -15.218,72.24806 0.26917,-40.27554 23.21268,-79.03334 55.15634,-103.17503 88.0676,-81.939641 215.21513,-110.2889 324.64841,-151.25552 53.119535,-19.88543 69.586619,-40.59025 86.429813,-60.61295 14.334132,-17.04 23.795529,-92.73608 20.836496,-110.82096 -13.531509,93.39785 -18.041621,126.28123 -109.155149,165.81592 z m 150.90228,-169.57281 c 4.84848,17.47269 37.44773,199.17369 60.30599,207.70282 -2.82521,-7.26283 -6.97224,-22.09019 -10.42155,-34.97397 -0.67406,-2.51771 165.80289,-75.7503 165.11154,-78.41877 -0.4477,-1.72804 -155.67891,67.24899 -156.82199,65.80591 -7.18359,-9.06896 -14.96643,-14.20891 -20.30394,-36.39121 -0.41845,-1.73904 151.03719,-67.78617 150.61902,-69.51685 -0.50748,-2.1003 -152.00412,63.67227 -152.51058,61.5901 -3.16898,-13.02804 -7.34584,-28.15711 -11.1899,-42.79809 -0.55746,-2.12318 138.00781,-53.06211 137.44581,-55.16943 -0.53067,-1.98982 -138.00463,47.42151 -138.53723,45.45678 -8.7043,-32.10974 -19.24328,-62.47064 -23.69717,-63.28729 z m -226.94922,211.00831 c -89.82498,29.781347 -194.7747,59.70851 -252.23241,140.07642 -16.15137,19.16321 -43.18655,57.49192 -35.47032,77.59364 4.09253,-45.77439 41.49402,-72.95971 68.01499,-106.34123 83.90114,-69.616106 179.27421,-90.65037 311.31015,-138.48651 13.42027,-5.03855 34.444134,-13.28342 40.937341,-19.01504 2.536107,3.34186 27.312619,97.58761 23.626989,106.12443 -5.104556,5.34439 -19.081958,5.2555 -30.726669,9.82885 C 27.32224,-66.1493 7.20354,-134.54629 7.10077,-152.15781 c -4.89076,18.48276 8.65238,75.4311 20.01384,99.99512 -11.95522,3.26852 -23.47788,8.1631 -35.61171,11.5797 -8.44904,1.80569 -15.42063,-81.81547 -22.98635,-96.61966 -2.12159,9.65799 0.74619,27.31808 3.28837,41.300299 4.27736,15.437447 14.9643,55.115201 11.24894,57.125051 -11.54771,6.24681 -30.93457,10.65111 -39.12771,12.89033 -19.82153,7.71252 -39.44486,14.70284 -39.44486,14.70284 -3.7037,-20.51508 -5.68045,-95.35081 -23.72676,-88.98325 10.23979,29.53616 22.04113,64.60569 15.77441,95.49435 -27.52035,14.56208 -66.08886,31.53018 -88.12194,42.9501 -21.87872,10.15507 -28.4231,22.4485 -41.77619,27.94543 -7.29094,-16.30364 -16.9316,-72.03072 -21.47157,-94.31229 -2.85156,-13.9951 -11.41222,-20.6148 -6.26242,-15.09198 -1.93779,38.60509 14.52581,78.93085 18.9182,113.79848 -4.64071,11.15249 -95.95363,86.82225 -68.07091,104.88677 4.90931,-15.79765 44.3048,-76.6181 71.49636,-82.65212 34.70442,-11.88119 84.5678,-39.95 103.42419,-49.38536 11.82841,34.7769 35.78426,37.47631 24.68868,41.47965 -53.00142,28.64348 -137.62697,71.60607 -192.11289,97.3346 29.0731,-0.72797 87.899,-39.74154 123.15958,-54.72212 C -87.85872,81.15501 -3.15021,35.08608 89.304119,-9.86749 98.128648,0.56873 122.83381,13.34537 112.52065,18.85261 45.920284,54.47242 -29.74697,102.50332 -98.54938,134.3476 c -56.69072,28.82165 -122.72244,56.64151 -179.71809,84.84522 -0.61235,-6.63389 -17.59566,-22.86168 -24.72678,-31.5684 -7.94713,-9.70301 -16.65004,-2.62071 -5.9696,5.94565 12.80925,3.00467 21.93837,31.02781 21.93837,31.02781 -5.38491,3.54985 -34.8037,18.29299 -32.83259,18.94703 1.99031,0.6604 36.07158,-12.85538 43.43248,-16.24939 18.63134,-8.59071 47.90921,-25.42931 68.72162,-33.26305 50.09106,-23.84412 109.9172,-54.48257 143.3123,-68.70482 8.07585,3.73671 14.03202,15.56079 19.09739,21.65583 -61.89336,29.08924 -156.67817,81.50898 -223.38912,113.46855 -5.162,11.06955 19.80477,2.36478 14.65321,4.63162 13.63538,29.69531 63.22075,56.25211 15.11499,7.16163 -11.28588,-12.0958 -5.1016,-18.36545 10.46227,-24.98768 19.41614,-8.26134 362.21612,-188.03562 376.96192,-195.30161 7.45884,-3.67535 21.44473,4.54009 34.2231,27.92844 17.91493,-7.38696 -30.722,-29.71739 -7.33126,-43.05739 29.34041,-16.79309 184.80632,-92.95268 234.70457,-119.503643 3.65289,-1.943704 56.55219,-32.397337 58.98262,-33.766557 3.88398,-3.35431 -0.45392,-6.16926 -5.8544,-2.49745 -16.94095,11.51832 -94.07675,52.4658 -119.22482,63.93637 -7.52952,3.43436 -25.08876,-16.18931 -34.88927,-22.12699 32.15237,-15.02757 126.07431,-67.03707 128.25016,-68.79269 -76.73088,29.67284 -273.98377,142.02861 -306.78603,157.97488 -8.573,4.32834 -20.66145,-17.04106 -32.003812,-28.76376 23.274452,-7.81837 125.941112,-68.465672 166.666802,-88.35859 11.6575,-5.3068 133.55319,-60.00313 142.11588,-66.79722 2.04622,-1.62364 1.78773,-2.99662 -1.91518,-4.05838 -12.0356,4.52884 -103.83277,50.67796 -116.04315,55.18952 -3.72094,1.37484 -6.44614,1.90856 -12.23235,4.23509 -16.33847,6.56944 -36.16902,2.48823 -48.87511,-16.25811 56.91018,-29.01016 139.50251,-71.0794 136.55347,-72.36308 -3.3458,-1.45639 -195.31193,94.7549 -207.55467,100.4747 -15.02949,-37.47991 -31.14893,-129.98952 -44.27483,-167.24468 5.07519,36.8252 23.78152,134.24904 36.60856,171.75734 -34.56909,19.347888 -43.77489,24.10863 -78.679186,35.29728 2.47959,-14.772953 -24.552173,-100.7277 -25.103608,-109.8086 7.593564,-2.42646 27.235385,-18.0487 35.235291,-27.15973 20.200443,-23.00611 32.431693,-84.25803 27.118013,-127.71515 -2.76867,42.9443 -0.19341,96.68609 -37.844489,131.16936 -14.264816,13.06463 -28.568889,20.76532 -34.702072,23.96517 -52.313299,27.29333 -87.798219,35.80607 -128.696599,49.36586 z m 172.724794,-72.70817 c 1.05253,36.37569 21.250506,81.96006 28.632366,117.381969 3.61543,-32.765579 -24.996565,-81.488329 -24.690501,-118.372959 -2.111702,-2.29611 -2.926375,-0.32198 -3.941865,0.99099 z m 176.709866,90.55536 C 161.05637,-51.11858 -62.36983,61.23626 -93.33603,73.9292 -105.3657,78.86013 -117.67287,63.1816 -127.1156,39.49529 -101.01394,28.0012 158.32954,-93.794219 175.26579,-105.22439 c 3.74259,-2.58985 25.56381,-12.80902 45.76647,-23.19068 3.37574,11.40098 33.99357,22.66506 35.35902,21.24024 z m -327.74263,-17.63799 c -0.031,11.4208 6.51734,68.89506 8.23849,81.03616 2.3495,16.57342 8.00349,15.53696 9.202,15.0516 -10.15038,-21.43171 -5.34456,-83.15426 -17.44049,-96.08776 z m -86.16761,32.043425 c -6.39202,-0.669047 -12.80465,-3.983251 -8.62175,3.263986 4.57312,27.253799 18.63501,76.058239 17.9272,105.225329 16.11504,-11.45671 -8.11269,-102.913984 -9.30545,-108.489315 z m 668.15493,0.540778 C 468.66238,-62.23136 427.42403,-52.63091 383.62319,-24.99123 261.62482,42.38749 68.062793,137.63685 -24.83717,195.68081 c -51.87458,26.47156 -98.269,55.33099 -149.59326,83.52756 -24.23102,14.53019 -86.88085,41.99902 -110.31765,57.60428 3.64727,15.18144 45.0929,-10.85783 35.18473,-9.25334 59.52427,-29.93834 203.74485,-115.46142 246.13356,-134.01669 8.68412,-7.11116 18.69456,-6.78868 33.59659,21.3715 -82.08111,50.26624 -200.63803,109.43329 -282.02147,160.00355 -5.2115,3.93045 -1.99325,7.06461 3.33637,5.88557 16.46331,-10.37758 65.65756,-36.442 71.89104,-40.2218 8.4539,0.85012 43.35768,34.75791 41.095,41.98076 -26.90555,18.57696 -59.26876,37.87173 -82.14308,49.74831 -2.58941,1.34445 1.83095,4.42439 3.30787,6.03559 14.013,1.66649 51.77181,-28.5597 76.05253,-41.3187 84.22486,-51.8257 371.31328,-210.67452 408.79169,-236.51971 39.68918,-21.16953 328.32665,-181.12318 328.34557,-202.33601 -51.61117,34.01955 -309.0404,185.74396 -329.98908,191.94256 0,0 -24.34452,-20.20059 -33.75617,-33.43215 11.9726,-9.40986 99.38679,-59.14031 189.48501,-106.05187 11.00629,-4.84956 83.07242,-35.70727 129.79781,-72.60107 4.81889,-3.32574 -0.79942,-5.70967 -6.03025,-2.02972 -36.56474,18.82568 -104.184,58.64733 -116.43982,65.88008 -11.88248,5.11837 -28.95936,-14.27545 -42.34658,-24.35273 20.91962,-18.14961 99.29363,-40.9688 121.09273,-69.755397 z M 302.10781,-74.60726 c 12.37489,9.66255 34.78577,23.63085 29.86935,26.5346 C 248.16815,-9.68508 15.62374,123.06788 -38.90929,140.69292 -50.85516,129.22301 -61.02205,122.20121 -53.71952,118.5974 -40.95705,112.29911 67.751738,50.41777 131.98038,18.15825 172.22436,-2.47173 289.00467,-69.26496 302.10781,-74.60726 Z M 54.072634,-54.24859 C 13.49008,-34.13521 -120.33581,25.87193 -163.75058,48.90817 -191.14073,59.58672 -264.32295,98.54699 -250.48208,92.57279 -204.47745,45.46848 -146.48175,24.99825 -82.86141,-4.57615 -26.63543,-32.05674 -4.65458,-33.0024 54.072634,-54.24859 Z M -194.06745,36.47236 c 0,0 3.42531,-1.64867 5.90718,-4.65765 1.04389,-27.06373 -14.27275,-77.87779 -24.18987,-100.57814 1.80723,16.14417 15.01785,79.28744 18.28269,105.23579 z m 576.07607,-55.53063 c 18.50532,9.96829 26.95655,23.29885 35.8121,27.1195 C 364.24168,33.04545 172.63673,138.94208 149.07005,150.6469 113.49065,168.31808 73.202171,191.66931 39.277591,210.8955 25.34988,200.26079 8.0784,183.64156 20.05643,176.68147 40.623046,164.7308 275.6838,36.70234 382.00862,-19.05827 Z m -690.9757,13.03856 c -5.18603,24.55323 14.17786,89.61364 19.59304,114.91111 0.98226,15.52384 9.03389,-8.22913 4.67841,-12.2872 -1.96665,-20.43587 -13.8938,-52.41667 -20.96995,-90.88402 0.43122,-1.95731 1.12361,-11.70187 -3.3015,-11.73989 z m 532.83898,128.6358 c 12.00555,10.99247 32.9227,23.88073 31.43718,34.83728 -0.67472,4.97652 -129.5059,77.0297 -159.727371,94.94321 -52.169551,29.58739 -152.590019,81.62356 -222.422079,125.79246 -9.90095,-12.73771 -26.31163,-39.89583 -37.49799,-45.1622 C -91.28479,286.41296 -10.34725,253.8833 62.639656,205.45872 101.79235,180.07125 211.70683,129.24277 223.8719,122.61609 Z m -505.35487,212.40388 c -0.15832,0.031 -0.0344,-0.008 0,0 z" />
  </g>
</svg>
