<?xml version="1.0" encoding="UTF-8" standalone="no"?>
<!-- Created with Inkscape (http://www.inkscape.org/) -->

<svg
   width="2048"
   height="2048"
   viewBox="0 0 541.86666 541.86668"
   version="1.1"
   id="svg5"
   inkscape:version="1.1.2 (0a00cf5339, 2022-02-04)"
   sodipodi:docname="tinwebp.svg"
   xmlns:inkscape="http://www.inkscape.org/namespaces/inkscape"
   xmlns:sodipodi="http://sodipodi.sourceforge.net/DTD/sodipodi-0.dtd"
   xmlns="http://www.w3.org/2000/svg"
   xmlns:svg="http://www.w3.org/2000/svg"
   xmlns:rdf="http://www.w3.org/1999/02/22-rdf-syntax-ns#"
   xmlns:cc="http://creativecommons.org/ns#"
   xmlns:dc="http://purl.org/dc/elements/1.1/">
  <title
     id="title363">Tint Horror - Strip 1 vignette 3</title>
  <sodipodi:namedview
     id="namedview7"
     pagecolor="#ffffff"
     bordercolor="#666666"
     borderopacity="1.0"
     inkscape:pageshadow="2"
     inkscape:pageopacity="0.0"
     inkscape:pagecheckerboard="0"
     inkscape:document-units="mm"
     showgrid="false"
     units="px"
     fit-margin-top="0"
     fit-margin-left="0"
     fit-margin-right="0"
     fit-margin-bottom="0"
     inkscape:zoom="0.28685466"
     inkscape:cx="1444.9826"
     inkscape:cy="822.71628"
     inkscape:window-width="2560"
     inkscape:window-height="1411"
     inkscape:window-x="0"
     inkscape:window-y="0"
     inkscape:window-maximized="1"
     inkscape:current-layer="layer1" />
  <defs
     id="defs2" />
  <g
     inkscape:label="Capa 1"
     inkscape:groupmode="layer"
     id="layer1"
     transform="translate(508.97964,144.56578)">
    <g
       id="g7819"
       transform="translate(0.31527406,-0.58077453)">
      <rect
         style="fill:#ffffff;fill-rule:evenodd;stroke:none;stroke-width:1;stroke-linecap:round;stroke-linejoin:bevel;paint-order:markers fill stroke;stop-color:#000000"
         id="rect7616"
         width="539.99597"
         height="538.53906"
         x="-507.70306"
         y="-143.46434" />
      <g
         id="g7563">
        <path
           style="fill:#030303;stroke:none;stroke-width:0.265636"
           d="m -255.75365,277.4038 c -2.86681,0.53244 -4.60423,2.93376 -6.89137,4.61361 -0.61545,0.45258 -2.36347,1.36039 -2.02871,2.3534 0.29209,0.86522 1.66453,0.49783 2.29376,0.42595 2.32505,-0.27154 4.88121,-0.0399 7.15165,-0.68951 2.86072,-0.82262 3.71843,-7.49146 -0.52533,-6.70345 z"
           id="path1754" />
        <path
           style="fill:#030303;stroke:none;stroke-width:0.265636"
           d="m -60.939941,257.29878 0.79516,1.06489 -0.79516,-1.06489"
           id="path1752" />
        <path
           style="fill:#030303;stroke:none;stroke-width:0.265636"
           d="m -153.97342,241.32551 0.5301,0.53245 -0.5301,-0.53245"
           id="path1750" />
        <path
           style="fill:#030303;stroke:none;stroke-width:0.265636"
           d="m -327.05282,232.27399 c -0.0604,1.66921 1.26669,2.73942 2.65053,3.46088 -5.80651,11.72438 -12.22847,22.05908 -20.86362,31.94654 -4.0129,4.59497 -8.19066,9.23254 -13.32818,12.59226 -3.60763,2.36138 -7.45566,3.41295 -11.39726,4.97833 v 0.26622 c 9.7754,1.32312 17.46776,-3.45821 24.6499,-9.80759 8.23704,-7.28381 14.81989,-15.02818 18.92476,-25.3336 1.66373,-4.17701 4.12236,-9.0249 4.13482,-13.57728 2.5119,1.11813 7.69156,3.43958 10.33705,2.66221 -2.33087,-4.87983 -10.41471,-6.3121 -15.108,-7.18797"
           id="path1748" />
        <path
           style="fill:#030303;stroke:none;stroke-width:0.265636"
           d="m -52.988361,229.07934 -0.26505,0.26622 0.26505,-0.26622"
           id="path1746" />
        <path
           style="fill:#030303;stroke:none;stroke-width:0.265636"
           d="m -271.65681,224.02114 c -4.79348,0.10383 -8.6325,5.60129 -11.34134,9.05152 -7.68202,9.78362 -9.97817,22.41848 -0.80576,32.20211 1.83814,1.96205 4.24429,3.64723 6.58099,4.95171 4.44229,2.48118 10.11521,3.04557 15.10801,3.04557 1.64385,0 4.66625,-0.27687 5.06833,-2.41995 0.50758,-2.70481 -3.8634,-3.78833 -5.59844,-4.45122 -6.60511,-2.52111 -14.09259,-5.05021 -18.73154,-10.69943 -8.40932,-10.24152 4.58859,-23.43278 9.71975,-31.68031"
           id="path1744" />
        <path
           style="fill:#030303;stroke:none;stroke-width:0.265636"
           d="m -59.349621,207.24921 -0.5301,0.53244 0.5301,-0.53244"
           id="path1742" />
        <path
           style="fill:#030303;stroke:none;stroke-width:0.265636"
           d="m -72.867311,205.9181 -0.26505,0.26622 0.26505,-0.26622"
           id="path1740" />
        <path
           style="fill:#030303;stroke:none;stroke-width:0.265636"
           d="m -133.03426,188.87995 -0.26505,0.26622 0.26505,-0.26622"
           id="path1738" />
        <path
           style="fill:#030303;stroke:none;stroke-width:0.265636"
           d="m -132.50416,188.08129 -0.5301,0.53244 0.5301,-0.53244"
           id="path1736" />
        <path
           style="fill:#030303;stroke:none;stroke-width:0.265636"
           d="m -96.722051,172.64046 -1.06021,1.06488 1.06021,-1.06488"
           id="path1734" />
        <path
           style="fill:#030303;stroke:none;stroke-width:0.265636"
           d="m -141.781,168.38092 1.06021,-0.79866 -1.06021,0.79866"
           id="path1732" />
        <path
           style="fill:#030303;stroke:none;stroke-width:0.265636"
           d="m -129.05847,167.31604 -0.53011,0.53244 0.53011,-0.53244"
           id="path1730" />
        <path
           style="fill:#030303;stroke:none;stroke-width:0.265636"
           d="m -99.372571,167.04982 -1.325269,1.3311 1.325269,-1.3311"
           id="path1728" />
        <path
           style="fill:#030303;stroke:none;stroke-width:0.265636"
           d="m -162.98521,220.0278 c 3.70808,-3.97734 4.87962,-11.10674 7.22533,-15.97327 4.54035,-9.42955 9.91827,-18.55827 16.6082,-26.62211 2.83607,-3.41828 5.88152,-7.05486 9.5631,-9.58396 -8.3412,11.31173 -15.06559,23.39817 -18.93006,37.00474 -1.13972,4.01195 -1.14238,6.73007 1.06021,10.38262 0.81902,1.35773 2.61342,3.10946 4.35217,2.43326 1.74404,-0.67886 3.06401,-2.65955 4.24084,-4.03059 2.9951,-3.49282 5.66948,-7.25186 8.44988,-10.91506 6.32946,-8.33272 12.82325,-16.7746 19.8869,-24.49235 3.0322,-3.31179 6.15718,-7.25186 9.8308,-9.85018 -9.38816,9.85285 -18.71271,21.51067 -23.05958,34.60875 -1.40478,4.23558 -2.18403,7.45952 0.19349,11.44751 0.7501,1.25656 2.33777,3.31179 4.04736,2.7261 1.87127,-0.64425 3.0587,-3.29848 4.0659,-4.85587 2.70619,-4.17701 5.31696,-8.40726 8.13447,-12.51239 8.410119,-12.25683 18.039479,-24.4817 30.473099,-32.7452 -2.65847,3.79365 -6.02199,7.15868 -8.77854,10.91506 -5.94513,8.10377 -10.61271,16.81719 -13.05385,26.62212 -0.91973,3.68716 -2.682329,8.19162 -0.69708,11.71373 0.63612,1.12611 1.84476,3.16537 3.44303,2.73941 1.31201,-0.35141 2.04886,-2.16704 2.58426,-3.27186 1.53201,-3.15738 2.93149,-6.39197 4.39193,-9.58396 3.91483,-8.55901 10.50934,-18.98156 19.26668,-23.16124 -7.16438,9.90609 -10.85391,22.03779 -13.5495,33.81009 -0.7819,3.41828 -0.95949,5.6785 0.86673,8.7853 0.68648,1.16604 1.86597,2.73675 3.40592,2.585 2.5286,-0.24492 4.21964,-4.47517 5.49189,-6.3121 3.70014,-5.34306 8.14242,-10.48911 13.59191,-14.10972 -2.46765,5.30312 -7.36317,11.07214 -7.05571,17.30437 0.2412,4.92509 3.2734,9.00893 8.38097,6.91909 1.82886,-0.75074 3.55701,-1.73842 5.30105,-2.65955 -3.46954,4.02793 -8.25374,11.65516 -7.63617,17.30438 0.32602,3.00031 3.29196,8.0239 6.84101,7.01758 2.10187,-0.59633 5.29046,-2.191 6.44609,-4.0998 0.93298,-1.54142 2.88377,-5.31644 1.7626,-7.09746 -1.2484,-1.98601 -4.27,-1.32844 -6.08826,-0.87853 0.92503,-6.90577 7.48243,-11.2292 10.25488,-17.30437 0.38698,-0.84925 0.79781,-1.74907 1.0019,-2.66221 1.27226,-5.65454 -4.87962,-4.64024 -8.34121,-3.68716 -1.77585,0.48984 -3.42183,1.29383 -5.036,2.17236 -2.41198,1.30981 -4.86901,2.65955 -7.15642,4.17701 0.54601,-6.70345 5.66153,-13.64916 9.51009,-18.9017 2.05681,-2.80597 5.23214,-5.92875 5.57141,-9.58396 0.41083,-4.46453 -5.21624,-2.593 -7.66002,-1.7757 -7.06101,2.36405 -13.77479,6.67151 -19.0838,11.8921 2.05151,-8.89711 8.7706,-15.77626 12.34351,-23.9599 0.91443,-2.08984 2.72739,-5.65454 1.43128,-7.95203 -1.52935,-2.71013 -6.14127,-1.48019 -8.47373,-0.92645 -1.72284,0.40998 -3.42713,1.01431 -5.036,1.75174 -2.72474,1.24858 -5.14468,2.89116 -7.68653,4.46453 3.37942,-3.9241 7.35256,-8.09046 10.05345,-12.5124 0.74745,-1.22461 2.21849,-3.84955 1.14502,-5.22059 -1.49489,-1.90881 -5.8232,-0.53511 -7.75279,-0.0692 -7.86676,1.90348 -13.39046,6.69014 -19.87895,11.14668 2.93414,-4.45654 7.06366,-8.0452 9.97659,-12.51239 0.95949,-1.46954 2.37487,-4.21162 1.5267,-6.01926 -0.66793,-1.42162 -2.85992,-1.20865 -4.08181,-0.93178 -3.57821,0.80931 -6.97089,2.46255 -10.072,4.4033 -12.804699,8.00527 -23.017179,19.47141 -33.131589,30.50096 4.03411,-8.567 11.70738,-16.28475 18.28864,-22.89502 3.23894,-3.25322 8.54,-7.5314 8.17687,-12.77329 -0.21999,-3.18401 -4.70733,-2.07919 -6.58655,-1.56272 -6.16248,1.69317 -12.34616,5.26053 -17.49348,9.01425 -14.41092,10.50775 -25.93541,25.5306 -30.85743,42.85894 -1.41539,4.981 -3.72134,12.22487 -2.0091,17.30437"
           id="path1724" />
        <path
           style="fill:#030303;stroke:none;stroke-width:0.265636"
           d="m -376.08756,280.46 c 0.19242,9.36034 2.68869,19.02682 4.32619,28.21944 0.50519,2.83526 2.73931,7.24654 5.74581,8.04254 2.13155,0.56173 4.58673,-1.79433 6.09621,-2.98434 4.02721,-3.17602 8.38627,-5.68116 12.98758,-7.91741 13.09334,-6.36269 27.44594,-8.75868 41.87832,-8.5883 11.05323,0.13311 23.08954,1.83427 33.39664,5.97667 2.67968,1.07553 8.5347,6.56501 10.87538,3.31179 1.54578,-2.14841 3.48623,-7.0309 1.91553,-9.55468 -1.24734,-2.00198 -3.8915,-2.92045 -5.89954,-3.92676 -6.78005,-3.40231 -14.55537,-4.75737 -21.99937,-5.81161 -26.60361,-3.76437 -56.70193,0.0958 -78.9857,16.12768 -1.72496,-6.01394 -5.37447,-11.48478 -7.11905,-17.5706 -0.42541,-1.48285 -1.88505,-4.27551 -1.42174,-5.80096 0.43786,-1.44025 3.67045,-2.85655 4.83005,-3.783 3.37333,-2.70214 6.22238,-5.8329 8.77749,-9.31774 7.82833,-10.68079 11.87992,-23.76023 15.04359,-36.47229 1.42466,-5.72376 3.30468,-11.66581 1.88903,-17.5706 h -0.79516 c -4.62994,7.03623 -6.8479,14.83384 -10.07518,22.6288 -4.7076,11.3703 -10.65141,22.77788 -19.87577,31.10261 -20.70565,18.68606 -53.49266,9.82623 -67.47578,-12.73335 -12.92371,-20.85044 -11.82056,-52.60796 -0.14949,-73.74326 9.97631,-18.06577 27.31871,-29.07667 48.01137,-23.38753 9.64209,2.65157 18.34085,8.37798 24.87281,15.93334 1.67672,1.93809 3.06878,4.09714 4.21725,6.38931 0.60194,1.20065 1.06684,2.96038 2.18616,3.72709 -0.74612,-8.59362 -7.17206,-16.22884 -13.51769,-21.4521 -16.65988,-13.70772 -42.65811,-17.02218 -59.10674,-0.90781 -15.87109,15.54998 -21.99938,37.90723 -21.99938,59.63087 0,12.30474 2.17211,25.05407 8.17979,35.93986 10.67659,19.34362 31.66055,32.64936 54.10759,30.39446 6.27539,-0.63094 13.84529,-2.15905 19.0838,-5.90212"
           id="path1722" />
        <path
           id="path1720"
           style="fill:#030303;stroke:none;stroke-width:0.265636"
           d="m -354.08819,146.39902 c -3.35265,0.44193 -7.28842,1.78102 -8.74807,5.20995 -0.59027,1.38435 -0.0615,2.59832 -0.23695,3.99332 -0.13995,1.1128 -0.80815,2.08983 -0.99978,3.19465 -0.77714,4.48583 3.11622,9.70642 7.86438,9.23787 6.09594,-0.60166 10.26628,-5.5161 11.37208,-11.36764 1.11031,-5.8755 -2.97946,-11.0961 -9.25166,-10.26815 m -6.89137,7.07352 c 0.96532,-0.90782 2.17767,-1.47753 3.44568,-1.8529 1.03662,-0.30349 2.10876,-0.30083 3.18063,-0.27421 1.28896,0.0346 3.21191,0.36206 4.08102,1.43227 2.54265,3.13609 -3.25803,9.83953 -6.72757,8.48447 -3.284,-1.28319 -0.70822,-6.83656 -3.97976,-7.78963" />
        <path
           style="fill:#030303;stroke:none;stroke-width:0.265636"
           d="m -160.06963,249.31213 c -0.85082,-4.97035 -3.28401,-9.69844 -4.39193,-14.64217 -2.47294,-11.01889 -2.75124,-22.45309 -0.53805,-33.54386 2.38017,-11.93469 7.99929,-23.04676 16.59229,-31.68031 7.12462,-7.15603 15.27764,-12.6109 24.6499,-16.34598 6.28175,-2.50248 13.10156,-4.15305 19.87895,-4.15305 9.319249,0 18.630549,1.33377 27.035369,5.65986 20.15196,10.37464 32.07138,33.20044 36.36523,54.77234 1.68043,8.44453 2.18669,17.06477 0.53011,25.55723 -2.98715,15.29706 -11.90087,28.6587 -24.43786,37.80073 -6.14392,4.48051 -13.22083,8.09047 -20.67411,9.74104 -13.80659,3.05621 -28.625689,-1.3737 -41.083159,-7.28381 -6.81981,-3.23459 -13.74033,-9.37631 -21.46927,-9.37631 1.12913,6.28282 9.63202,11.01623 14.31285,14.54366 18.06864,13.61189 39.932829,18.23881 61.227159,9.41358 6.12272,-2.53709 11.88496,-5.99264 16.96337,-10.27081 4.66228,-3.92677 8.76795,-8.41525 12.26664,-13.42021 18.26213,-26.12961 15.38631,-59.50309 0.80311,-86.52187 -5.93188,-10.98695 -14.02924,-21.39886 -24.46701,-28.39249 -24.67906,-16.53233 -58.510379,-11.33303 -80.045909,8.20494 -11.65436,10.5743 -19.25077,24.897 -21.84299,40.42036 -2.10452,12.59492 -1.11852,25.70631 2.93679,37.8034 1.13177,3.38101 2.75389,9.29644 5.38852,11.71373"
           id="path1718" />
        <path
           style="fill:#030303;stroke:none;stroke-width:0.265636"
           d="m -371.58167,152.40763 c 1.8612,-1.02229 2.99828,-3.51944 4.52949,-5.01294 3.21508,-3.13609 6.85161,-5.974 10.57851,-8.47116 12.23351,-8.19162 27.22356,-11.9267 41.61327,-14.00855 6.84313,-0.99035 14.06926,-1.9546 20.67411,0.60432 -2.59486,7.70444 -8.3913,14.08842 -9.46529,22.36257 -1.83788,14.16563 9.89441,26.63543 21.65772,32.54554 2.87608,1.44292 6.08189,3.37302 9.27684,3.92676 v 0.26622 l -10.07094,2.89649 -2.91664,-2.09783 1.85537,2.66222 -4.23687,0.9717 -3.71471,-3.63392 2.91558,4.25954 c -1.34409,0.29285 -1.99718,0.18902 -3.18064,-0.53244 l 0.53011,1.33111 -6.36127,2.39599 -1.59031,-6.92175 5.30105,-3.7271 -5.5661,2.66221 -1.27279,-8.14104 4.45342,-2.24158 v -0.26622 l -5.036,1.3311 -1.06021,-11.71373 0.79515,0.26622 c -0.38989,-0.85989 -1.48456,-2.27086 -2.18986,-0.75873 -1.1278,2.41995 -0.69338,6.89513 -0.72465,9.54403 -0.0122,1.03028 0.31991,2.71546 -0.27354,3.61528 -0.55847,0.84925 -2.01705,1.12079 -2.90816,1.45623 -2.38044,0.89451 -4.9093,1.72512 -7.15642,2.91512 v 0.26623 l 10.60211,-3.46088 2.6e-4,7.18797 -0.18394,2.82461 -6.70769,4.36336 c 2.22061,-0.0453 5.30715,-2.23626 7.15642,-3.46087 0,3.94806 -0.57543,7.90677 1.38755,11.44751 0.81954,1.47752 2.29403,3.2825 4.17856,3.05888 3.00861,-0.35674 6.24676,-2.25223 9.01179,-3.43692 0.9624,-0.41264 2.63091,-1.55207 3.7004,-1.30714 0.95843,0.2183 1.62027,1.48817 2.16442,2.21762 1.47025,1.96737 3.01391,3.8815 4.47223,5.85686 h 0.26505 l -6.09621,-8.78529 1.85537,-0.26622 c 0.57835,-1.02229 3.66913,-2.99499 4.87962,-2.39866 0.97434,0.48186 1.72231,1.83693 2.38283,2.66488 1.63192,2.04724 3.35795,4.02792 4.92997,6.12308 h 0.26506 l -6.89137,-9.85018 c 3.09793,-0.89716 6.14842,-2.84324 9.01179,-4.32876 1.08274,-0.56172 2.54424,-1.84491 3.82312,-1.74641 1.71515,0.13045 3.91854,1.53078 5.45372,2.28418 3.52653,1.72778 6.99739,3.45289 10.33706,5.54273 7.85086,4.90645 16.05689,12.47778 20.31098,20.87706 7.86942,15.54199 4.85312,34.92821 -1.07346,50.58201 -3.39798,8.97166 -8.95348,16.87044 -12.39651,25.82345 -0.95684,2.49183 -3.04016,8.52174 1.37562,9.33904 2.71149,0.50316 7.10076,-4.42459 8.73614,-6.14438 4.25409,-4.46986 7.04245,-10.48912 9.75128,-15.97327 1.11323,-2.25223 1.86332,-6.09647 3.64448,-7.85086 0.9913,-0.97437 3.07991,-1.36305 4.37337,-1.81297 9.96598,-3.49016 20.47797,-4.95704 30.74611,-7.21992 10.87246,-2.40131 21.6601,-5.38565 32.60148,-7.4462 5.27985,-0.99301 10.49078,-1.52012 15.37305,-3.95605 1.42068,-0.70815 4.23819,-1.50947 4.42903,-3.38367 0.21735,-2.10048 -3.777,-1.30448 -4.95913,-1.15007 -5.33286,0.69483 -10.63657,2.33742 -15.90316,3.47951 -21.96492,4.76269 -44.23199,10.10043 -65.46801,17.36028 2.04885,-4.64024 3.09581,-9.95135 4.08181,-14.90839 2.17078,-10.90175 2.57896,-22.49834 -0.48505,-33.27764 -4.61192,-16.2315 -17.02168,-29.76352 -31.4273,-37.95781 -7.09068,-4.03059 -14.60228,-7.03888 -22.26442,-9.7783 -8.80691,-3.14673 -17.19529,-5.81693 -23.51017,-13.22853 -7.86173,-9.22456 -0.90489,-17.44281 2.78279,-26.62211 1.90387,-4.73874 4.07492,-10.96512 -1.27226,-14.25242 -7.76843,-4.77574 -17.51123,-2.93988 -25.97489,-1.52039 -21.3985,3.58893 -48.27484,13.02274 -55.92612,35.73939"
           id="path1716" />
      </g>
      <g
         id="g7592">
        <path
           style="fill:#030303;stroke:none;stroke-width:0.284244"
           d="m -131.48025,24.956274 h 0.28361 c 1.22524,3.438947 2.99503,6.9625 5.43699,9.68557 0.66084,0.737527 1.90026,2.452728 3.0404,2.301461 0.96147,-0.127621 1.31599,-1.50753 1.38689,-2.301461 0.23541,-2.706832 0.50485,-5.524194 0.24109,-8.261221 -0.13898,-1.455684 -0.53321,-5.638426 -2.45048,-5.849514 -2.66885,-0.293701 -1.4578,4.871556 -1.13164,6.134383 -1.82366,-1.988105 -3.53956,-3.962537 -5.67239,-5.637286 -0.59843,-0.47089 -1.60528,-1.472491 -2.45898,-1.247729 -0.72606,0.191148 -1.004,2.777194 -1.21956,3.466579 -0.95012,3.019334 -1.92861,6.199619 -1.76695,9.4007 0.0511,0.98223 -0.0907,2.532491 0.76577,3.229852 1.17135,0.956593 1.93712,-1.342306 2.2406,-2.090374 1.16283,-2.890003 1.30465,-5.756361 1.30465,-8.83096"
           id="path1708" />
        <path
           style="fill:#030303;stroke:none;stroke-width:0.265636"
           d="m -100.66043,21.282606 0.795152,0.266221 c -1.521402,4.518571 -2.891722,9.324661 -0.530102,13.843499 l -1.59031,0.532442 v 0.266221 c 3.329046,0.423026 6.173041,1.109078 9.54184,0.55374 1.319954,-0.217502 2.72738,-0.175439 3.180617,-1.618624 -2.822797,-0.675137 -6.191599,-0.676468 -9.011744,0 l 0.26506,-5.856865 c 1.873908,0.0386 4.670193,0.664488 6.096164,-0.798664 l -6.096164,-0.266221 -0.795157,-5.856865 c 0.938274,0.502093 1.916321,0.880393 2.915565,1.246181 2.006438,0.734504 5.910637,-0.386819 4.232866,-3.325634 -1.553201,-2.723975 -7.853465,-1.34841 -9.003787,1.014569"
           id="path1706" />
        <path
           style="fill:#030303;stroke:none;stroke-width:0.298338"
           d="m -146.68264,20.208952 3.27452,9.26886 -5.06062,-0.896987 1.48842,-8.072878 c -4.39976,2.347415 -6.25135,11.568135 -6.25135,16.145756 2.14332,-1.058146 3.2388,-4.371912 3.86989,-6.5779 l 6.7842,2.014631 3.93238,4.862264 c 1.0151,-5.496135 -2.59877,-14.627755 -8.03744,-16.743746"
           id="path1704" />
        <path
           style="fill:#030303;stroke:none;stroke-width:0.283346"
           d="m -113.69834,23.322123 c -0.48911,3.657538 -1.56911,11.19411 2.26179,13.630575 2.3664,-4.241948 0.26576,-9.576615 -1.41361,-13.630575 2.86116,-0.02385 5.94002,-0.461451 8.19898,-2.271762 -1.41361,-2.878323 -10.58235,-2.980269 -12.96006,-0.950732 -2.56148,2.187991 2.57279,3.194666 3.9129,3.222494"
           id="path1702" />
        <path
           id="path1692"
           style="fill:#030303;stroke:none;stroke-width:0.297891"
           d="m -202.27249,21.835621 c -1.68236,-2.307175 -3.07343,1.968027 -3.36769,3.284024 -0.92441,4.110105 -1.59914,7.988238 0.98979,11.643357 h 0.29724 c 2.83565,-4.001732 2.08066,-8.796407 2.08066,-13.434643 2.42546,1.048499 5.1214,1.567375 7.72817,0.925498 0.98386,-0.241824 2.62461,-0.738905 2.51166,-2.060575 -0.0891,-1.066711 -1.69425,-1.380783 -2.51166,-1.581706 -2.68405,-0.659491 -5.38891,-0.251377 -7.72817,1.224045 m 0.29729,5.970953 v 0.298547 c 2.22927,1.273007 4.64582,1.490947 7.13369,0.895643 v -0.597095 c -2.40465,-0.905794 -4.62798,-0.915347 -7.13369,-0.597095 m -1.18896,7.762237 v 0.597095 c 3.23098,1.396308 7.5112,0.769656 10.70055,-0.597095 v -0.597095 c -3.39742,-0.812647 -7.41012,-0.459464 -10.70055,0.597095" />
        <path
           style="fill:#030303;stroke:none;stroke-width:0.265636"
           d="m -186.2043,23.37542 7.42147,1.863548 c -1.48164,3.161642 -6.53885,1.16871 -6.89137,4.259538 h -0.26505 l -0.79516,-7.187971 h -0.26505 c -1.78646,2.851495 -2.80691,7.048471 -2.17343,10.382624 0.16698,0.869745 0.31276,2.690165 1.20864,3.147799 0.766,0.390813 1.17948,-0.768048 1.37827,-1.285582 0.61227,-1.601586 0.89853,-3.348529 0.91178,-5.05687 h 0.26505 c 0.53011,2.988865 2.21054,2.93003 4.77095,2.928432 0.38433,1.918124 2.37222,3.999174 4.24084,4.52576 -0.0186,-2.146009 -1.02575,-3.718045 -2.38547,-5.324423 1.13177,-0.440596 2.02235,-1.14342 2.7539,-2.130834 1.19538,-1.612235 2.29535,-4.75817 1.02575,-6.626777 -2.23174,-3.283837 -9.49949,-3.129429 -11.20112,0.504756"
           id="path1682" />
        <path
           id="path1678"
           style="fill:#030303;stroke:none;stroke-width:0.255715"
           d="m -167.32445,23.630563 c 0.90118,0.0022 1.75995,0.06143 2.65053,0.179849 0.62287,0.08289 1.24574,0.144323 1.85536,0.294814 2.23705,0.552869 3.31051,2.076032 0.79516,3.265649 -1.29876,0.615039 -8.29085,1.42621 -3.45098,3.23802 0.43203,0.162826 0.88527,0.287906 1.33056,0.422854 -0.5301,2.562044 1.71224,5.57334 4.5059,5.920949 0.46649,-2.350617 -0.28361,-4.2843 -2.65053,-5.427536 1.40743,-0.311097 2.7539,-0.136429 3.94928,-1.084028 0.77396,-0.616025 1.33322,-1.511075 1.7467,-2.369859 0.7289,-1.524645 1.13708,-3.701087 -0.0769,-5.106572 -2.2609,-2.612372 -9.53925,-3.226424 -10.65512,0.66586 m -1.85534,-0.28282 c -3.08786,0.904672 -2.68763,7.985633 -2.39873,10.361661 0.10867,0.890856 0.14313,2.700939 1.16623,3.16376 1.24575,0.562737 1.61683,-2.022744 1.7414,-2.670348 0.13783,-0.737651 0.24385,-1.479003 0.35782,-2.220356 0.19349,-1.263876 0.14048,-2.431783 0.0292,-3.700593 -0.15108,-1.695612 -0.34192,-3.305616 -0.89588,-4.934124" />
        <path
           style="fill:#030303;stroke:none;stroke-width:0.25498"
           d="m -341.86867,36.789334 -0.0885,0.163364 0.0885,-0.163364"
           id="path1700" />
        <path
           style="fill:#030303;stroke:none;stroke-width:0.275273"
           d="m -304.46767,36.952698 c 3.98207,-3.169487 3.82474,-8.800663 6.76117,-12.529916 l 1.30023,5.245081 c -4.70136,0.0035 -2.33677,4.293682 1.30023,2.913934 1.70953,4.026182 7.08258,5.96861 5.40633,-0.291393 -1.22299,-4.567301 -5.33821,-7.897052 -7.74675,-11.655736 -1.38994,0.732563 -2.07775,2.040045 -2.82148,3.496721 -1.63387,3.200081 -5.17543,9.014254 -4.19973,12.821309"
           id="path1694" />
        <path
           style="fill:#030303;stroke:none;stroke-width:0.304889"
           d="m -249.70161,36.952698 c 4.25582,-2.130709 5.96464,-10.469377 7.74165,-14.673047 l 2.6798,6.86823 c -1.44114,0.08275 -2.32488,0.486402 -2.97757,1.873163 l 3.75769,0.528537 4.87723,5.403117 c 1.80739,-6.807981 -4.87128,-12.400913 -8.33715,-17.170597 -1.77225,0.987154 -2.6015,2.865621 -3.49626,4.68289 -1.87675,3.813129 -4.23378,8.110461 -4.24539,12.487707"
           id="path1690" />
        <path
           id="path1688"
           style="fill:#030303;stroke:none;stroke-width:0.273661"
           d="m -359.21795,36.952698 c 5.12268,-2.033166 5.50986,-12.207031 6.37745,-17.003885 -1.5629,0.952694 -2.34038,2.551228 -3.0851,4.241249 -1.57272,3.569378 -4.5309,8.709782 -3.29235,12.762636 m 8.4076,-8.113743 -3.08207,1.406639 c 1.31989,0.976054 2.69822,0.45692 3.967,1.097945 1.54144,0.779009 2.47549,5.506469 4.69721,4.95971 1.417,-0.348815 0.46212,-3.407554 0.19224,-4.290932 -0.97207,-3.182495 -2.83634,-6.254247 -4.68604,-8.938134 -2.57385,-3.734229 -2.61307,0.347581 -2.01269,2.728841 0.25996,1.031356 0.57373,2.036127 0.92435,3.035931" />
        <path
           style="fill:#030303;stroke:none;stroke-width:0.29628"
           d="m -322.2086,21.057576 c 1.48,2.021271 4.11717,2.454698 6.29787,2.564658 -0.79544,2.936854 -1.89839,6.84507 -1.86663,9.938047 0.0111,1.079401 0.37623,2.910247 1.37322,3.314177 1.26396,0.51197 1.93756,-1.61637 2.19412,-2.673013 0.67168,-2.765661 0.50712,-7.160202 -0.0577,-9.938047 2.28829,-0.645332 5.79869,-0.228575 7.11932,-2.885239 l -6.29787,-0.645974 -8.76225,0.325391"
           id="path1686" />
        <path
           style="fill:#030303;stroke:none;stroke-width:0.305315"
           d="m -338.33298,36.952698 h 0.63475 l 1.74556,-11.748526 c 0.44306,3.306917 1.80968,6.956596 4.3398,9.371506 1.5656,1.494412 3.767,2.889436 5.02277,0.321028 0.26403,-0.540026 3.06843,-8.086003 1.2695,-12.629666 -3.7063,1.982858 -1.94512,12.013563 -2.30741,11.553168 -5.18231,-5.795182 -5.71423,-10.299493 -7.84859,-11.84688 -0.36663,-0.401555 -0.70233,-0.151004 -0.95213,0.587427 l -0.31737,-2.349707 c -1.72589,0.8597 -2.02391,3.012617 -2.23718,4.699412 -0.50368,3.979518 -0.6722,8.182848 0.6503,12.042238"
           id="path1684"
           sodipodi:nodetypes="ccccsccccccc" />
        <path
           id="path1676"
           style="fill:#030303;stroke:none;stroke-width:0.26885"
           d="m -375.86613,20.244795 c -2.05455,4.680184 -1.8373,12.023974 0.15549,16.707903 l 0.29403,-0.01616 c 1.68282,-4.188254 2.86514,-12.712734 0.13854,-16.724061 l -0.58806,0.03231 m 1.02023,1.664751 c 3.46623,1.122985 9.15286,1.307302 12.36869,-0.433883 -1.47346,-2.001946 -11.57986,-2.25632 -12.36869,0.433883 m 1.01886,5.352271 0.0196,0.244754 c 4.31774,1.128061 7.58892,1.433565 11.78063,-0.401567 -1.40875,-2.902289 -9.28264,-0.267931 -11.80023,0.156813" />
        <path
           style="fill:#030303;stroke:none;stroke-width:0.276844"
           d="m -267.52826,36.675246 h 0.27624 c 2.1179,-3.023127 2.6768,-8.723834 2.6768,-12.272465 h 0.27623 c 1.6324,4.134581 5.29293,6.033526 7.7346,0.832357 h 0.27624 c 0.13646,3.194046 -0.1382,9.04042 1.74297,11.71756 3.00959,-2.600008 2.39745,-8.675407 1.97646,-12.20795 -0.17347,-1.457182 -0.10689,-3.576645 -1.71238,-4.233382 -2.7386,-1.119804 -3.70667,2.522852 -5.91601,3.051118 -2.00961,0.480554 -3.48346,-4.031362 -6.16322,-2.773666 -1.48643,0.697799 -0.4174,2.73569 -0.7533,3.95593 -1.02428,3.720106 -2.87009,8.292811 -0.41463,11.930498"
           id="path1674"
           sodipodi:nodetypes="cccccccccsccc" />
        <path
           style="fill:#030303;stroke:none;stroke-width:0.279007"
           d="m -273.42108,24.116102 c 2.12134,-3.664378 -10.01315,-5.437823 -12.89246,-1.215881 -1.81299,2.658489 1.11349,5.145656 4.71841,5.938256 1.21315,0.26696 4.98543,-0.1853 6.6234,1.864514 1.94603,2.435323 -2.07561,2.112322 -2.59017,1.994562 -0.95242,-0.21801 -4.63456,-2.84548 -5.67646,-1.468363 -0.87607,1.157926 0.5171,2.534046 1.25059,3.247676 1.1042,1.07399 3.3436,2.499884 5.48812,2.475524 4.41148,-0.0499 6.05491,-5.111669 4.86255,-8.149561 -1.4051,-3.579898 -12.5427,-1.139737 -10.55476,-4.090852 2.62877,-3.902425 7.10376,2.110216 8.77078,-0.595875 z"
           id="path1672"
           sodipodi:nodetypes="cscsssccssc" />
        <g
           id="g7382">
          <path
             style="fill:#030303;stroke:none;stroke-width:0.330454"
             d="m -97.744957,-23.225452 c -1.794284,6.535156 -2.074236,13.189762 -1.619309,19.9085568 0.190879,2.81603065 0.101783,5.6591775 1.301178,8.2380228 h 0.636263 c 2.535536,-7.1049526 0.8526,-15.3632266 0,-22.6545646 5.007445,1.002981 14.182457,3.783999 18.451832,-0.34325 -3.346787,-2.033075 -7.994739,-2.556877 -11.770994,-1.956187 -1.533418,0.244051 -4.457073,2.38628 -5.907768,1.543943 -1.291623,-0.751376 -0.598095,-3.468209 -1.091202,-4.736521"
             id="path1668" />
          <path
             id="path1666"
             style="fill:#030303;stroke:none;stroke-width:0.29486"
             d="m -117.8104,-24.732567 c -9.93262,1.881805 -12.404,13.889543 -8.60867,21.7294139 1.81824,3.75474452 5.53709,8.6971441 10.37394,7.8224346 8.06143,-1.4583396 15.46382,-13.9516003 13.04833,-22.0068965 -1.67407,-5.585133 -9.5619,-8.540229 -14.8136,-7.544952 m 3.23634,2.225778 c 1.91532,4.062666 3.60998,7.971076 0.23831,11.82009 -0.8238,0.9420845 -2.54789,3.0529091 -4.00718,2.3398451 -1.35926,-0.661646 -1.91238,-2.7579911 -2.11539,-4.1126081 -0.62373,-4.167572 1.61229,-8.773385 5.88426,-10.047327" />
          <path
             style="fill:#030303;stroke:none;stroke-width:0.337141"
             d="m -148.8013,-26.313067 c -1.97468,7.648003 -5.67845,15.285532 -5.71881,23.3139945 -0.0102,2.10332715 -0.58534,6.0011568 1.22786,7.5608296 1.8031,1.5525768 3.1689,-2.3584296 3.58267,-3.5062225 1.8031,-4.9652045 1.91748,-9.9898779 1.91748,-15.2047786 4.28575,2.813221 7.88861,1.503246 12.44684,0.195634 1.49025,-0.428098 4.59524,-0.976821 4.22856,-3.187935 -0.26239,-1.589744 -3.06798,-1.394446 -4.22856,-1.399853 -4.13101,-0.01994 -8.8978,-0.06116 -12.44684,2.36485 l -1.0092,-10.136519"
             id="path1664" />
          <path
             style="fill:#030303;stroke:none;stroke-width:0.302694"
             d="m -172.99379,-18.716125 c 5.59055,1.403041 10.40791,1.549868 15.40347,-2.123523 -3.55488,-2.839148 -11.60697,-0.02973 -15.40347,1.213442 -0.20539,-1.099985 -0.25673,-5.576672 -1.58264,-5.787811 -2.09003,-0.33309 -3.04143,5.030624 -3.31022,6.394531 -1.34706,6.904176 -3.19849,14.6544261 -1.00879,21.5385812 1.93299,6.0757002 4.82944,-0.9722701 5.67513,-3.6403241 1.788,-5.6224792 0.22954,-11.8535001 0.22652,-17.5948961"
             id="path1662" />
          <path
             style="fill:#030303;stroke:none;stroke-width:0.265636"
             d="m -204.36196,-14.884039 c 1.18214,-2.45163 1.64863,-4.468788 4.5059,-5.59304 6.77474,-2.665672 10.19923,5.418133 7.58581,10.6512418 -0.55661,1.115466 -2.91028,4.536941 -4.46084,4.076112 -3.22039,-0.956533 -0.60697,-9.2309518 -4.98034,-8.7019708 -2.20524,0.266754 -2.83076,3.347465 -3.31581,5.1583008 -1.34912,5.027054 0.95949,11.998587 6.23139,13.814748 4.38927,1.512136 9.18672,-1.505215 11.60401,-5.02945006 4.2859,-6.24767794 6.50174,-15.46824674 1.21924,-21.82613974 -3.55701,-4.283765 -11.78424,-5.953237 -15.95617,-1.576562 -2.35897,2.477454 -2.79366,5.741858 -2.43319,9.02676"
             id="path1660" />
          <path
             style="fill:#030303;stroke:none;stroke-width:0.265636"
             d="m -328.37813,-23.91808 c -2.33114,7.322146 -3.30203,15.5369319 -4.12449,23.16123946 -0.12987,1.204384 1.09016,6.91189904 3.19733,5.40109404 1.41008,-1.011108 1.35999,-3.367964 1.50232,-4.86865204 0.35226,-3.71697996 -0.26108,-7.46324356 0.057,-11.18128746 0.0832,-0.971974 -0.34987,-2.257289 0.17069,-3.134754 0.79383,-1.339092 3.37015,-1.667876 4.76326,-1.830803 0.97805,-0.114475 1.94894,-0.120332 2.91558,0.08546 7.67566,1.634864 3.47007,9.2828645 3.60101,14.7302815 0.0326,1.35746196 0.85135,7.825038 3.24424,6.223452 2.83819,-1.899222 3.49605,-7.147772 3.80165,-10.216769 0.37505,-3.7672956 0.77767,-8.5129535 -1.08274,-11.9799505 -3.60869,-6.724746 -12.568,-5.07737 -17.51574,-1.331106 l -0.5301,-5.058202"
             id="path1656" />
          <path
             id="path1654"
             style="fill:#030303;stroke:none;stroke-width:0.265636"
             d="m -346.13666,-34.244875 c -2.26037,-2.487304 -5.16906,-7.755821 -0.52984,-9.629485 2.82228,-1.139693 6.69258,1.00179 5.99231,4.305062 -0.60962,2.874922 -3.86898,3.317914 -4.89605,5.639629 -1.01039,2.283112 4.07545,2.567436 5.26368,2.078388 1.61364,-0.664222 2.42788,-2.476921 3.06825,-3.990921 1.19591,-2.828333 1.42651,-6.398093 -0.37691,-9.050454 -2.30596,-3.391125 -8.75045,-4.63491 -11.95573,-1.804713 -2.93705,2.59326 -2.81698,6.621452 -0.94571,9.790282 1.0398,1.760521 2.23069,3.152059 4.38,2.662212 m 1e-5,9.317743 c -2.23731,7.027971 -3.28984,15.5297432 -3.43137,22.8950178 -0.0345,1.79246708 0.40632,3.914782 1.0337,5.589313 0.22132,0.591277 0.70637,1.662018 1.5222,1.285581 1.30194,-0.600861 1.99744,-3.99331695 2.25162,-5.27756692 1.06631,-5.38911508 0.55555,-12.35132988 0.19057,-17.83681688 -0.12112,-1.815628 0.52083,-5.998228 -1.56672,-6.655528" />
          <path
             style="fill:#030303;stroke:none;stroke-width:0.265636"
             d="m -309.29434,-57.714266 c 0.77422,1.481791 2.2055,1.364121 3.71074,1.327117 3.27446,-0.0804 6.33237,-1.425077 9.54189,-1.859557 -0.38777,4.893413 -1.88505,9.783096 -2.61501,14.642164 -1.64942,10.98322 -2.14136,22.584072 -0.10469,33.543864 0.94438,5.080564 3.23364,15.034573 9.87613,14.981595 6.95312,-0.05591 8.72208,-11.161055 8.74647,-16.312701 0.008,-1.591204 0.27035,-5.399497 -1.36317,-6.303584 -1.18372,-0.65517 -2.41728,0.09238 -2.86972,1.249376 -1.70986,4.369754 -2.48328,8.728859 -4.51358,13.040843 -2.94606,-3.776348 -3.29726,-9.507024 -3.75554,-14.109721 -0.99686,-10.014707 -0.43124,-20.108215 0.52984,-30.082989 0.34484,-3.578544 -0.0504,-8.012191 1.05332,-11.443517 0.50281,-1.56298 2.13288,-2.0105 3.49764,-2.5906 2.70221,-1.14847 5.18045,-2.16544 7.42041,-4.14586 0.78456,-0.69377 2.95428,-2.56717 2.32902,-3.82799 -0.48531,-0.97863 -2.34174,-0.37937 -3.12311,-0.2175 -3.27393,0.67806 -6.09648,2.41063 -9.27685,3.32377 1.03238,-4.00743 1.40134,-8.41206 1.89645,-12.5124 0.0737,-0.60991 0.75938,-3.97308 -0.55396,-3.74812 -1.29769,0.22229 -1.76869,3.26094 -2.06052,4.28057 -0.88501,3.09269 -1.71913,6.19603 -2.49626,9.31774 -0.34377,1.38115 -0.48955,3.28783 -1.27517,4.49035 -0.788,1.20678 -2.74542,1.59919 -3.99222,2.16517 -3.53501,1.60452 -7.09387,3.12225 -10.60211,4.79198"
             id="path1652" />
          <path
             style="fill:#030303;stroke:none;stroke-width:0.265636"
             d="m -417.43583,-74.412767 c 0.79648,1.16791 2.16309,1.01696 3.44568,1.07526 2.74091,0.12513 5.48103,-0.0146 8.21664,0.12539 12.63665,0.64639 25.82779,-0.99992 38.43263,-1.99932 -3.68926,17.962741 -4.34633,36.87163 -5.58969,55.107778 -0.5484,8.042008 -2.52542,17.2130596 0.28864,25.0247866 2.05283,-0.592608 2.49229,-2.954522 3.02796,-4.79198003 1.33295,-4.57154997 1.2704,-8.91122097 1.81879,-13.57727857 0.60856,-5.182526 0.50148,-10.516799 0.50175,-15.707047 5.3e-4,-9.40506 0.53302,-18.835145 0.5301,-28.21944 -0.002,-5.458329 1.24231,-12.553919 -0.31249,-17.836819 11.00551,-0.19753 22.6673,-1.97536 33.39663,-4.39291 3.02081,-0.68046 8.72898,-1.01217 10.60211,-3.85994 -19.45328,-0.40306 -38.95771,2.5874 -58.31159,4.98233 -11.90775,1.4738 -24.26849,1.87286 -36.04716,4.06919"
             id="path1650" />
          <path
             style="fill:#030303;stroke:none;stroke-width:0.265636"
             d="m -236.13507,-40.058146 c 5.44419,3.109197 13.13867,3.334686 19.0838,1.863548 -0.89853,11.42701 -2.66643,22.827131 -2.10982,34.3425261 0.11397,2.355791 1.42333,5.595968 3.00835,7.339983 0.74214,0.815968 1.92958,1.808706 3.0216,1.017231 1.43923,-1.044652 2.35101,-3.77288594 2.8016,-5.42878197 1.44189,-5.30631903 0.49565,-11.08810913 1.00985,-16.50570913 2.13898,-22.582741 -0.0451,-45.285011 -0.0451,-67.886391 h -0.26506 l -4.04735,25.02479 -2.57896,17.304371 c -6.57596,-1.363318 -12.75169,-1.714464 -19.34885,0 0.2518,-5.860858 1.08672,-12.028403 1.88983,-17.836811 0.81901,-5.91943 1.35707,-12.96311 0.68383,-18.90171 -0.15903,-1.41762 0.0557,-6.35523 -2.56041,-5.38778 -1.61947,0.59953 -1.70429,3.41588 -1.97199,4.85534 -0.95154,5.10053 -1.07611,10.31474 -1.78645,15.44083 -2.23175,16.089072 -4.49795,32.29768 -6.10682,48.452245 -0.61492,6.176862 -2.65848,15.2206601 1.38888,20.7032191 1.18743,1.605845 2.08861,-0.51008 2.44643,-1.535298 0.92769,-2.65209494 0.84817,-5.248283 1.16889,-7.986634 0.77925,-6.6243801 0.92238,-13.3552491 2.01705,-19.9665841 0.79781,-4.795974 2.19993,-10.063958 2.30065,-14.908384"
             id="path1430" />
        </g>
      </g>
    </g>
  </g>
  <metadata
     id="metadata361">
    <rdf:RDF>
      <cc:Work
         rdf:about="">
        <dc:title>Tint Horror - Strip 1 vignette 3</dc:title>
        <dc:date>04/08/2024</dc:date>
        <dc:creator>
          <cc:Agent>
            <dc:title>ALLEDOVA</dc:title>
          </cc:Agent>
        </dc:creator>
        <dc:rights>
          <cc:Agent>
            <dc:title>ALLEDOVA</dc:title>
          </cc:Agent>
        </dc:rights>
        <dc:publisher>
          <cc:Agent>
            <dc:title>ALLEDOVA</dc:title>
          </cc:Agent>
        </dc:publisher>
      </cc:Work>
    </rdf:RDF>
  </metadata>
</svg>
