<?xml version="1.0" encoding="UTF-8" standalone="no"?>
<!-- Created with Inkscape (http://www.inkscape.org/) -->

<svg
   width="2048"
   height="2048"
   viewBox="0 0 541.86666 541.86668"
   version="1.1"
   id="svg5"
   inkscape:version="1.1.2 (0a00cf5339, 2022-02-04)"
   sodipodi:docname="tinweb1.svg"
   xmlns:inkscape="http://www.inkscape.org/namespaces/inkscape"
   xmlns:sodipodi="http://sodipodi.sourceforge.net/DTD/sodipodi-0.dtd"
   xmlns="http://www.w3.org/2000/svg"
   xmlns:svg="http://www.w3.org/2000/svg">
  <sodipodi:namedview
     id="namedview7"
     pagecolor="#ffffff"
     bordercolor="#666666"
     borderopacity="1.0"
     inkscape:pageshadow="2"
     inkscape:pageopacity="0.0"
     inkscape:pagecheckerboard="0"
     inkscape:document-units="mm"
     showgrid="false"
     units="px"
     fit-margin-top="0"
     fit-margin-left="0"
     fit-margin-right="0"
     fit-margin-bottom="0"
     inkscape:zoom="0.10141844"
     inkscape:cx="1444.5105"
     inkscape:cy="818.39163"
     inkscape:window-width="1920"
     inkscape:window-height="1051"
     inkscape:window-x="2560"
     inkscape:window-y="0"
     inkscape:window-maximized="1"
     inkscape:current-layer="layer1" />
  <defs
     id="defs2" />
  <g
     inkscape:label="Capa 1"
     inkscape:groupmode="layer"
     id="layer1"
     transform="translate(508.97964,144.56578)">
    <rect
       style="fill:#ffffff;fill-rule:evenodd;stroke:none;stroke-width:1;stroke-linecap:round;stroke-linejoin:bevel;paint-order:markers fill stroke;stop-color:#000000"
       id="rect7616"
       width="539.99597"
       height="538.53906"
       x="-508.59628"
       y="-143.98843" />
    <path
       style="fill:#000000;fill-rule:evenodd;stroke-width:0.192424"
       d="m -179.32529,293.59772 c -2.26911,-0.6977 -22.61294,-4.03325 -24.06612,-2.82101 0.47074,1.71595 -4.41099,4.2264 -6.60575,2.70868 -0.69028,-0.47734 -2.50224,0.59281 -3.80639,0.50694 -0.31887,-0.021 -1.20116,0.3293 -2.08471,0.82771 -2.32956,1.31401 -3.28814,1.39521 -6.08324,0.51519 -1.81345,-0.57098 -2.2674,-0.65836 -2.45177,-0.47066 -0.12437,0.1265 -1.27528,1.32547 -2.55751,2.66436 -7.72353,8.06474 -11.49325,10.03696 -17.76196,9.29256 -1.39165,-0.16524 -11.13341,-3.2944 -12.55582,-4.03301 -3.14634,-1.6339 -4.14346,-2.11426 -4.78245,-2.30401 -0.37439,-0.1115 -0.70573,-0.29054 -0.73613,-0.3985 -0.0304,-0.10797 -0.55993,-0.40032 -1.17676,-0.64964 -0.61682,-0.24934 -1.30757,-0.58976 -1.535,-0.75656 -1.97141,-1.44577 -9.59375,-3.49502 -12.90146,-3.46853 -3.73785,0.0299 -10.72705,2.78836 -14.80484,5.84301 -11.80353,8.84197 -25.95652,10.53196 -35.02007,4.18171 -0.99498,-0.69711 -2.41451,-2.07478 -2.35428,-2.28486 0.007,-0.0229 0.662,0.44015 1.45654,1.02895 6.30905,4.67542 17.12109,4.64856 26.52678,-0.0659 2.06284,-1.03396 9.54814,-5.36268 11.13267,-6.43795 5.49974,-3.73221 11.5032,-5.16191 17.60283,-4.19207 3.64345,0.57932 7.76681,2.07372 14.41612,5.2247 0.92082,0.43636 2.35293,1.1055 3.18246,1.48696 0.82954,0.38147 1.58245,0.77516 1.67313,0.87486 0.45124,0.49617 7.60319,2.70624 9.2606,2.8617 6.41728,0.6019 8.80551,-0.58217 16.66323,-8.26163 2.61594,-2.55659 2.57562,-2.21045 0.50153,-4.30541 -0.96047,-0.97011 -1.98084,-2.0399 -2.26747,-2.3773 -0.28664,-0.3374 -0.70104,-0.66503 -0.92086,-0.72805 -0.43834,-0.12566 -0.56363,-0.55984 -0.24516,-0.84947 0.37403,-0.34018 2.55236,0.52912 2.48849,0.99307 -0.0427,0.30989 0.20858,0.53484 1.27434,1.14086 0.7301,0.41517 1.73277,1.06926 2.22814,1.4535 2.52211,1.95631 7.27148,2.51588 9.11203,1.07356 1.70928,-1.33944 3.08902,-4.22134 1.84233,-3.84811 -1.29821,0.38866 -3.24092,0.6908 -3.92846,0.611 -0.37291,-0.0433 -0.81705,-0.0652 -0.98693,-0.0487 -0.16988,0.0165 -0.64811,-0.0435 -1.06273,-0.13335 -0.41463,-0.0898 -1.08264,-0.22716 -1.48449,-0.30512 -0.5053,-0.098 -0.77017,-0.25076 -0.85887,-0.49534 -0.0705,-0.19449 -0.60018,-0.76269 -1.17702,-1.26263 -2.71442,-2.35267 -4.6502,-5.81315 -3.4421,-6.1532 0.11388,-0.0321 1.08076,0.60152 2.1486,1.40794 1.87476,1.41581 3.22616,2.22209 3.29893,1.96827 0.0193,-0.0673 -0.0556,-0.59394 -0.16632,-1.17041 -0.11077,-0.57647 -0.18282,-1.56249 -0.16015,-2.19114 0.15189,-4.21009 -0.51243,-11.33522 -1.58723,-17.02344 -2.08727,-11.04676 -6.29056,-19.01862 -14.10095,-26.74363 -2.59118,-2.56286 -2.32267,-2.4367 -5.11595,-2.40381 -0.99422,0.0117 -2.38484,-0.008 -3.09025,-0.0435 -2.71231,-0.13692 -4.59314,-0.0577 -5.16329,-0.0918 -0.32475,-0.0194 0.10491,1.7948 -0.10951,1.89486 -0.21442,0.1001 -0.36949,-1.87575 -0.50984,-1.88438 -0.76034,-0.0468 -1.93767,-0.13601 -2.71939,-0.19231 -0.40161,-0.0289 -0.63564,1.79742 -0.64069,1.97316 -0.011,0.38311 -0.0516,-1.18815 -0.2397,-1.67076 -0.18936,-0.4856 -0.26768,-0.5239 -1.2658,-0.61905 -0.58518,-0.0558 -1.63029,-0.16837 -2.32246,-0.25018 -0.69217,-0.0818 -1.67668,-0.17357 -2.1878,-0.20388 -4.52005,-0.26812 -7.07162,-2.25787 -8.30295,-6.47484 -0.23446,-0.80288 -0.56552,-1.63179 -0.73569,-1.84199 -0.0711,-0.0879 -4.48639,0.34993 -4.44683,-0.17888 0.0312,-0.41645 4.24134,-0.26124 4.29025,-0.28804 0.19726,-0.10809 -0.32625,-2.93723 -0.67036,-3.62518 -0.48087,-0.0295 -3.45583,-0.24458 -3.73274,-0.36941 0.0412,-0.41347 2.98977,-0.16381 3.60357,-0.28592 0.15105,-0.0838 0.0201,-1.5582 -0.34548,-3.93544 -0.13283,-0.8638 -0.27808,-2.20027 -0.32277,-2.96991 -0.0897,-1.54324 -0.0793,-1.52519 -2.06755,-3.60817 -2.08252,-2.1817 -3.99725,-4.58706 -5.21339,-6.54911 -0.41329,-0.6668 -1.19296,-1.63677 -1.73259,-2.15547 -2.17148,-2.08723 -3.35905,-7.65241 -3.43636,-16.10349 -0.003,-0.33117 0.0594,-1.03391 0.13868,-1.56165 0.15904,-1.05837 0.0902,-2.64913 -0.17307,-3.99956 -0.35339,-1.8126 -0.18226,-3.34636 0.9308,-8.34276 1.30727,-5.86825 1.29383,-6.42833 -0.19456,-8.10718 -2.87545,-3.24342 -9.13673,-3.92753 -18.76993,-2.0508 -6.06984,1.18251 -15.26897,5.22526 -17.5948,7.7324 -0.86792,0.93558 -1.07884,0.80324 -0.43172,-0.27086 2.96747,-4.9255 16.79494,-10.7281 26.52606,-11.13148 3.10667,-0.12879 3.81405,-0.0654 6.44044,0.5768 6.68808,1.63547 9.10167,5.85861 7.34111,12.84504 -0.72656,2.88336 -1.18463,5.66788 -1.02166,6.21097 0.0734,0.24458 0.103,1.11157 0.0658,1.92663 -0.27895,6.11096 0.43931,13.94995 1.50055,16.37642 1.4442,3.30214 1.67476,3.87396 1.74241,4.32151 0.10557,0.69849 -0.19062,0.72694 -0.69746,0.067 -0.44757,-0.58271 -0.44757,-0.58271 -0.27131,0.0365 0.27666,0.97206 0.63466,1.6289 1.42958,2.62289 0.69681,0.87131 0.71763,0.88391 0.38375,0.23245 -0.32956,-0.64304 -0.38126,-1.17545 -0.10652,-1.09669 0.24774,0.071 1.65499,2.85237 1.57839,3.11956 -0.12634,0.44068 4.94225,5.73191 5.72137,5.97267 0.16557,0.0506 0.50354,0.28562 0.75138,0.52114 0.24783,0.23553 0.57517,0.46504 0.72741,0.51005 0.15205,0.0457 0.45444,0.2477 0.67155,0.45046 0.21712,0.20276 0.73734,0.58759 1.15606,0.8552 0.41871,0.26761 1.10577,0.71019 1.52678,0.98355 0.42101,0.27336 1.31021,0.78511 1.97599,1.13721 6.94741,3.67426 12.91981,7.62437 18.33535,12.1269 13.2099,10.98285 18.42952,17.95972 22.04056,29.46064 1.54331,4.91541 3.24489,15.05409 3.4558,20.59123 0.044,1.15595 0.0568,1.18009 0.6408,1.20718 2.65902,0.12336 4.90136,2.51278 5.60482,5.97245 0.16819,0.82719 0.36061,1.25439 0.59531,1.32167 0.80341,0.23033 1.03354,0.95095 0.48821,1.52879 -0.31404,0.33278 -0.49951,0.71189 -0.5102,1.04284 -0.0386,1.19677 -0.23965,2.7134 -0.45685,3.44651 -0.27795,0.93685 -0.29766,0.92647 0.96455,0.50333 1.05819,-0.35471 2.30391,-1.54185 2.567,-2.44629 0.57972,-1.99309 -1.60352,-7.2466 -3.2112,-7.72684 -0.51412,-0.15364 -0.74594,-0.58684 -0.37563,-0.70209 0.62626,-0.19488 1.78864,0.30602 2.76155,1.19008 0.71323,0.64808 1.00533,0.8188 1.16159,0.67884 0.11479,-0.10283 0.65467,-0.59961 1.19965,-1.10395 2.69434,-2.49334 3.61025,-3.31065 4.35091,-3.88253 0.44372,-0.34258 0.8282,-0.69771 0.85442,-0.78917 0.0262,-0.0914 0.50062,-0.68086 1.05423,-1.30977 1.28214,-1.45654 2.11623,-2.76677 2.40699,-3.78097 0.28203,-0.98374 0.15048,-1.02773 -1.34842,-0.45066 -0.65538,0.25231 -1.68693,0.48621 -2.29232,0.51979 -0.60539,0.0336 -1.41003,0.13913 -1.78811,0.2346 -1.22647,0.30964 -0.86074,-0.62087 0.5069,-1.28967 2.38463,-1.16617 4.25131,-1.93214 4.8913,-2.00709 0.97277,-0.11393 1.00166,-0.26748 0.99755,-5.301 -2.7e-4,-0.33037 0.007,-1.09389 0.0167,-1.69671 0.009,-0.60282 0.0146,-1.3027 0.0114,-1.5553 -0.008,-0.62907 0.75073,-0.0131 0.9133,0.74155 0.16052,0.74506 0.47147,0.72847 1.38951,-0.0742 0.45046,-0.39381 1.06045,-0.88554 1.35549,-1.09273 0.74507,-0.52315 0.6098,-0.71817 -0.81015,-1.16793 -1.9698,-0.62391 -1.5855,-0.98741 1.33869,-1.2662 6.03946,-0.57582 6.14998,1.76304 0.22944,4.85613 -2.99769,1.5661 -2.99769,1.5661 -2.89342,2.64886 0.34583,3.59135 0.28192,4.47236 -0.52297,7.2085 -0.91906,3.12449 -3.92101,7.29196 -5.34203,7.4162 -0.14797,0.0129 -0.67199,0.41685 -1.16445,0.8976 -0.49248,0.48075 -1.39149,1.22047 -1.9978,1.64385 -1.10238,0.76978 -1.20201,0.97849 -0.2789,1.29106 2.04507,0.69245 2.92013,1.0483 3.6488,0.79942 1.82848,-0.62453 15.86687,0.79341 24.19403,2.5542 1.83399,0.3878 7.00465,9.27245 1.3669,7.53898 z m -27.42494,-2.52966 c 2.00765,-1.14441 2.45631,-2.48679 1.43035,-4.27958 -1.51906,-2.65446 -3.83294,-3.69825 -2.7042,-1.21985 0.72117,1.58341 0.83183,3.03781 0.35712,4.69363 -0.43309,1.51066 -0.38856,1.54983 0.91673,0.8058 z m -10.17647,-5.69786 c 2.31579,0.10292 2.30319,0.11273 1.73195,-1.34742 -1.52509,-3.8982 -4.19384,-6.39116 -4.17226,-3.89742 0.0445,5.14416 0.0417,5.13822 2.44031,5.24484 z m -45.95628,-54.96979 c 0.33954,-0.005 1.26619,0.0842 2.05926,0.19816 2.61862,0.37615 4.38541,0.50321 4.66242,0.22841 0.19657,-0.195 -0.002,-2.11766 0.13541,-1.9165 0.13262,0.19434 0.0694,2.06388 0.69156,2.08431 3.63998,0.12218 6.13696,0.31066 7.86375,0.50656 3.76428,0.42703 4.16327,0.46638 4.24892,0.41891 0.2856,-0.15833 -6.54773,-5.78289 -9.73066,-8.00933 -2.53929,-1.77623 -2.69062,-1.87112 -8.18594,-5.13251 -5.55277,-3.29548 -5.69572,-3.38493 -7.97725,-4.99152 -3.14409,-2.21399 -3.01273,-2.19551 -2.52748,-0.35548 0.1775,0.67302 0.58119,2.28863 0.89709,3.59026 0.80654,3.3232 0.62205,3.08034 2.82187,3.71461 1.87175,0.53973 2.44459,0.86096 2.09768,1.17647 -0.11525,0.10482 -0.85063,-0.0213 -1.93238,-0.33143 -1.9963,-0.57232 -1.96158,-0.59982 -1.49206,1.17925 0.39279,1.4882 0.52074,1.49063 2.69718,1.42554 3.1248,-0.0934 4.58206,0.28167 4.19486,0.31331 -0.309,0.0252 -2.03082,0.005 -2.69109,0.006 -2.84806,0.003 -3.70699,0.28935 -2.93941,1.93596 1.28076,2.7475 2.88455,3.99078 5.1064,3.95856 z m -72.48973,71.36009 c -2.48748,-1.26524 -3.83451,-2.04917 -4.37461,-2.54587 -0.30493,-0.28046 -1.16651,-1.04564 -1.91462,-1.7004 -0.74811,-0.65476 -1.89236,-1.82375 -2.54279,-2.59773 -0.65044,-0.774 -1.42326,-1.69164 -1.7174,-2.03924 -2.06397,-2.43908 -6.30581,-11.50466 -7.02282,-15.00905 -0.37223,-1.81926 0.11322,-1.73095 1.06695,0.19408 2.93796,5.93005 5.78901,10.53595 8.26265,13.34836 0.96231,1.09413 4.1706,4.10253 4.46517,4.18698 0.0964,0.0276 0.85265,0.63295 1.68061,1.34517 0.82797,0.71221 2.38818,1.98617 3.46713,2.83102 2.54804,1.99519 2.84574,2.44665 1.9433,2.94693 -0.45144,0.25027 -1.57211,-0.0745 -3.31354,-0.96036 z m -44.31127,-21.89875 c -0.0472,-0.0851 -0.75601,-0.42853 -1.57525,-0.76325 -15.72755,-6.42609 -25.26567,-23.28929 -23.22787,-41.06643 0.0672,-0.58627 0.15241,-1.50767 0.18933,-2.04756 0.26248,-3.83735 3.72721,-15.93285 5.24611,-18.3134 0.17815,-0.27922 0.51846,-0.99237 0.75632,-1.58476 0.23786,-0.59239 0.62129,-1.4283 0.85209,-1.85757 5.52044,-10.26767 12.02258,-17.40224 19.83223,-21.76119 6.01214,-3.35567 9.82754,-4.26046 16.43815,-3.89817 1.81876,0.0997 6.78954,1.58057 8.29908,2.47247 6.06005,3.58053 12.44776,10.45095 14.33478,15.41801 0.58123,1.52995 0.36959,1.64711 -0.49399,0.27347 -2.04827,-3.25809 -6.755,-8.0157 -10.88208,-10.99975 -9.41566,-6.80791 -21.15803,-5.60635 -31.88479,3.26263 -17.6539,14.59641 -25.51526,44.89394 -15.88222,61.20979 6.73732,11.41123 21.5217,19.3058 31.81889,16.99063 6.47829,-1.45656 10.80794,-4.90403 17.6221,-14.03153 3.5975,-4.81885 4.23276,-5.41612 4.75626,-4.47182 0.59311,1.06989 -2.93303,8.58734 -5.55828,11.8498 -0.99377,1.235 -3.43984,3.94452 -4.09053,4.53107 -1.7638,1.59002 -3.25841,2.73735 -5.26087,4.03855 -3.30399,2.1469 -9.19461,3.22857 -14.03927,2.57797 -1.62244,-0.21789 -7.12657,-1.6064 -7.24994,-1.8289 z m 45.66579,4.3164 c -0.3583,-0.81647 0.19604,-0.76508 4.2339,0.39253 2.13571,0.61229 3.83284,1.17936 3.83739,1.28231 0.031,0.70151 -7.73572,-0.91013 -8.07129,-1.67484 z m -10.16823,-7.1198 c -0.7294,-1.41836 0.58422,-1.88287 5.38145,-1.9031 0.52359,-0.002 1.38064,-0.007 1.90454,-0.01 0.5239,-0.003 3.61266,-0.0157 6.86391,-0.0275 3.25126,-0.0118 6.94852,-0.0874 8.21614,-0.16792 2.87373,-0.18252 2.88468,-0.17895 3.39998,1.10125 0.90384,2.24557 -2.12652,2.94495 -10.36774,2.39275 -5.51261,-0.36937 -10.26034,-0.61101 -13.10248,-0.6669 -1.95726,-0.0385 -1.9439,-0.0343 -2.29582,-0.71852 z m 64.99335,-3.68193 c -0.70185,-0.77799 -2.86777,-4.95413 -3.67171,-7.07948 -1.39166,-3.6791 -2.52202,-7.49001 -3.66724,-12.36408 -1.37508,-5.8522 -1.52215,-20.2812 -0.25684,-25.1957 0.23955,-0.93063 0.83457,-1.1011 0.6984,-0.20013 -0.28855,1.9091 -0.17248,8.61028 0.2509,14.4846 0.571,7.92264 2.04229,13.74191 5.47667,21.66126 2.33861,5.39263 2.21013,5.27653 4.10108,3.70577 2.32118,-1.92812 7.35088,-5.68798 10.63391,-7.94919 9.55829,-6.5833 19.31495,-10.26529 20.68217,-7.80508 0.4587,0.82542 -3.61053,3.47573 -8.49173,5.53075 -2.9063,1.22356 -9.62672,5.27918 -13.76787,8.30856 -0.83589,0.61149 -2.08597,1.51563 -2.77796,2.00923 -0.69199,0.4936 -2.0607,1.49733 -3.04158,2.23049 -4.62055,3.45374 -5.22102,3.71297 -6.1682,2.663 z m 67.97768,5.5019 c 0.019,-0.0771 0.43023,-0.74742 0.91433,-1.48941 0.48411,-0.74198 1.08258,-1.72022 1.32993,-2.17385 0.55171,-1.01173 1.76082,-5.16198 1.8323,-6.28925 0.0288,-0.45336 0.0928,-1.31843 0.14248,-1.92237 0.19783,-2.40791 -1.00417,-6.22028 -2.17511,-6.89867 -1.67129,-0.9683 -2.68215,-4.37121 -1.05428,-3.54913 0.24591,0.12418 0.96058,0.47705 1.58817,0.78414 4.54851,2.22564 5.16534,10.552 1.31661,17.77225 -1.29513,2.42965 -4.26884,5.30554 -3.89443,3.76629 z m 7.25378,-21.48173 c -0.42733,-2.61056 -5.57996,-1.70774 -4.97091,-2.54469 0.39778,-0.54661 5.27663,-0.53282 6.23357,0.76409 0.80233,1.08738 1.5892,2.56052 2.04802,1.54538 0.79845,-1.76664 6.73423,-3.4765 6.07595,-3.07965 -3.03743,1.83113 -6.15746,10.36728 -6.26036,8.53188 -0.0231,-0.4127 -0.55065,-1.65597 -0.58108,-3.00823 0.34493,-1.21404 0.075,-1.29774 -0.42718,-0.13287 -0.99283,2.30309 -1.28689,5.12376 -1.35478,4.34705 z m -115.75195,-44.12081 c -0.7178,-0.76049 -1.83473,-1.8918 -2.48208,-2.514 -0.64734,-0.62222 -1.55327,-1.54689 -2.01319,-2.05484 -2.29598,-2.53583 -4.42276,-3.77729 -8.44533,-4.9298 -4.81282,-1.37979 -4.50682,-3.26656 0.36261,-2.23506 0.89672,0.18998 1.6405,0.31024 1.65281,0.26729 0.0123,-0.043 -0.19478,-0.69699 -0.4602,-1.4534 -6.43253,-18.33121 21.67214,-24.55758 28.67737,-6.35326 4.63079,12.03393 -7.4671,24.9227 -15.93743,16.9793 -2.6246,-2.46133 -2.59797,-3.99419 0.0485,-2.79111 6.52997,2.96855 13.41313,-0.30752 13.7117,-6.52609 0.62379,-12.99152 -14.54177,-21.17581 -22.96078,-12.3911 -2.85406,2.97805 -3.27217,12.82448 -0.57736,13.59705 0.41403,0.1187 1.86803,0.96619 2.9742,1.73357 3.34741,2.32217 8.15773,8.87116 7.32892,9.97793 -0.24775,0.33084 -0.4995,0.15588 -1.87974,-1.30648 z m -26.90591,-18.99452 c -0.0431,-0.49308 0.40797,-0.77886 2.48876,-1.57675 4.30605,-1.65117 6.21852,-4.06181 6.20587,-7.8224 -0.0331,-9.82101 -8.33346,-15.57093 -18.03978,-12.49663 -4.96624,1.57295 -8.61984,7.59032 -8.10118,13.3424 0.18007,1.99698 0.0714,2.23154 -0.36283,0.78297 -3.45456,-11.52456 9.71716,-21.47908 21.00857,-15.87722 6.41414,3.18219 10.35864,13.9514 7.01391,19.14928 -1.74959,2.71894 -2.10372,3.11854 -3.51892,3.97056 -1.83438,1.10439 -6.61106,1.481 -6.6944,0.52779 z m 25.58411,2.99691 c -1.8611,-1.79017 -2.03106,-4.4822 -0.4029,-6.38206 1.29354,-1.50942 4.74869,-1.76316 6.08419,-0.44685 0.53278,0.52513 0.53278,0.52513 -0.26967,0.35663 -1.03332,-0.21697 -1.06981,-0.0115 -0.16294,0.91743 1.84031,1.88504 2.01921,3.24147 0.64138,4.86319 -1.6621,1.95631 -4.25833,2.26118 -5.89007,0.69165 z m 3.07182,-1.49081 c 1.74639,-0.48023 1.9207,-1.1898 0.82655,-3.36466 -0.85319,-1.69587 -1.56106,-1.88939 -2.78611,-0.76162 -1.79077,1.64855 -0.31685,4.75226 1.95955,4.1263 z m -35.86244,-13.50277 c -1.95336,-1.51857 -2.25103,-4.64358 -0.59289,-6.22431 1.79585,-1.71201 6.80635,-1.798 8.31184,-0.14267 2.82603,3.10734 -4.32477,9.00567 -7.71895,6.36698 z m 2.63999,-2.15836 c 1.29436,-0.24543 2.93775,-1.37937 3.16922,-2.18676 0.27394,-0.95555 -4.03281,-1.80982 -4.83559,-0.95915 -1.38416,1.4667 -0.29747,3.51828 1.66637,3.14591 z m 47.22518,3.98761 c -2.17303,-4.06943 -2.68788,-4.75125 -4.66705,-6.18037 -3.73008,-2.69343 -7.16239,-3.33027 -12.66549,-2.35 -2.70335,0.48154 -3.09519,0.23526 -1.62458,-1.02111 1.81824,-1.55332 6.05485,-2.53298 9.34216,-2.16022 2.88784,0.32747 2.92498,0.34012 5.99531,2.04345 3.01557,1.67295 5.70587,5.06808 6.24679,7.88341 0.35163,1.83013 0.54486,4.7934 0.33333,5.11171 -0.6177,0.92952 -0.79253,0.73308 -2.96047,-3.32687 z m -30.83057,-14.13073 c -2.11748,-5.72916 -5.78274,-7.51302 -14.68285,-7.14598 -1.82834,0.0754 -3.35047,0.0898 -3.38253,0.032 -0.37644,-0.67905 5.07561,-2.26173 7.91779,-2.29847 0.55253,-0.007 1.41192,-0.0198 1.90977,-0.0283 5.59364,-0.0944 11.32671,5.17823 10.13817,9.32397 -0.48627,1.69615 -1.29818,1.74603 -1.90035,0.11677 z m 132.60128,115.67786 c 0,0 2.26236,0.0663 2.88768,0.21167 1.07393,0.24973 0.0368,2.83912 0.64823,2.8989 0.56324,0.0551 9.65136,-2.28014 10.44519,-2.20293 2.90398,0.28244 5.57452,0.97093 5.97398,1.04711 0.33728,0.0643 3.97601,0.33954 4.67578,1.18042 0,0 0.0104,4.58173 -2.45737,3.1528 -0.26669,-0.15438 0.1092,0.39332 -2.95679,-0.49459 1.31846,-0.15619 2.93018,-3.25773 2.28322,-2.88872 -1.77446,1.01211 -4.57277,2.19674 -5.19082,2.1201 -2.11453,-0.26219 -14.40938,-1.39147 -16.75752,-1.45468 0,0 -0.0175,-3.60424 0.44838,-3.57009 z"
       id="path7875-6"
       sodipodi:nodetypes="scsssssssscssssssssssssssssssssssssssssssssssssssssssssssssssssscccsssssssssssssssssssssssssscscsssssssssssscsssssssssssssssssssssssssssssssssssssssscssccsscsssssssssssssssccccsssssssssscccsssssssssssssssssssssccssssssssssssssscsssssssssssssccsssssssccssssscsccssscsscssssssssssssssssssssssssssssssssssssssssssssssssssssssssssssssscsssssss" />
    <path
       style="fill:#000000;stroke-width:0.223033"
       d="m -312.26022,101.39261 c 0.0333,-20.515699 0.82048,-23.054795 1.4401,-4.644749 0.2552,7.582609 -1.44614,8.377919 -1.4401,4.644749 z m -11.95347,-4.571949 c 0.89266,-1.968701 0.87772,-2.523348 -0.22033,-8.184165 -1.40535,-7.244938 -0.92607,-7.267798 1.12434,-0.0537 1.7602,6.193124 1.84242,7.201628 0.7225,8.862519 -1.27578,1.892051 -0.85799,4.303755 1.31618,7.597585 1.62595,2.46331 -4.50679,-4.77273 -2.94269,-8.222279 z m -21.08312,1.276491 c -0.418,-0.274707 -2.89298,-3.885819 -3.55013,-5.17978 -1.28506,-2.530345 -0.28315,-6.000357 1.94716,-6.743791 0.22259,-0.0742 0.20111,-0.26553 -0.0963,-0.857697 -1.3035,-2.595315 -2.55012,-6.14173 -3.50708,-9.977072 -2.90345,-11.63656 -1.96101,-19.006743 2.48422,-19.4273 3.36558,-0.31842 8.13557,-1.83642 8.39479,-2.671565 0.0773,-0.24898 -0.10095,-0.283069 -0.88071,-0.168471 -3.49581,0.513769 -7.65973,0.388091 -9.56437,-0.288655 -0.30668,-0.108953 -0.8085,-0.252388 -1.11516,-0.318722 -0.59458,-0.12861 -3.8718,-2.180548 -4.11746,-2.578039 -0.29915,-0.484017 -1.00055,-0.25204 -1.13771,0.376292 -0.0736,0.337336 -0.21919,0.864249 -0.32344,1.170928 -1.05925,3.115906 -3.90751,17.722145 -4.76804,24.451153 -0.62326,4.873588 -0.95235,5.792402 -2.36404,6.600459 -1.33861,0.766244 -1.30703,0.973574 0.41478,2.723642 2.95575,3.004255 3.80526,5.126313 1.0655,2.661565 -0.63137,-0.567987 -1.73438,-1.431161 -2.45113,-1.918168 -2.45435,-1.667631 -2.40072,-3.892289 0.12565,-5.21202 0.8862,-0.462927 0.99145,-0.780557 1.5129,-4.565618 0.57082,-4.143527 1.31917,-8.271013 2.34256,-12.920265 1.27026,-5.770712 2.43563,-10.713905 2.78677,-11.820748 1.01313,-3.193565 1.01509,-2.993729 -0.0432,-4.397793 -2.86749,-3.804209 -3.97634,-6.364086 -5.29814,-12.231325 -0.64506,-2.863299 -0.10618,-12.257011 0.87559,-15.26466 0.10015,-0.306667 0.35911,-1.156625 0.57554,-1.888775 0.72806,-2.462805 2.80588,-6.53782 4.09596,-8.0329857 0.86281,-0.9999764 3.90486,-3.9462626 4.68094,-4.5335983 0.68153,-0.5157747 0.68153,-0.5157747 0.20907,-1.1548164 -0.3025,-0.4091637 -0.41615,-0.7852467 -0.31591,-1.0454584 0.14803,-0.3842897 0.16936,-0.3821217 0.39183,0.03964 0.82064,1.5557971 1.00841,1.3767211 2.58553,0.4964767 3.96109,-2.2108338 12.46157,-1.9196168 13.32165,-1.8300681 1.56376,0.162722 1.56376,0.162722 6.89506,-5.0506818 10.63973,-10.404465 13.79944,-14.614699 15.51112,-20.66817 1.60806,-5.686995 3.20746,-7.408784 6.27409,-6.754164 2.33128,0.497659 4.24453,1.154145 4.15205,1.424684 -0.0983,0.28774 -0.5464,0.292017 -3.66535,0.035 -3.15105,-0.259678 -3.7867,0.393818 -5.21358,5.359952 -1.98889,6.922171 -4.70475,10.803055 -14.52945,20.762217 -2.9152,2.95509509 -5.30037,5.4238915 -5.30037,5.4861915 0,0.192915 1.63685,0.7685677 2.51602,0.9581214 6.03864,1.3019724 12.93538,9.5407251 13.66829,10.5018841 2.14943,2.818791 3.22975,4.822951 4.41834,7.737759 0.1883,0.461728 0.49998,0.899995 0.69265,0.973933 0.23086,0.08855 0.27915,0.220617 0.14162,0.387176 -0.13207,0.15994 -0.095,0.5803 0.10084,1.144872 0.41071,1.183643 1.38025,5.134266 1.80627,7.36011 0.24565,1.283462 0.29967,2.385298 0.19245,3.925634 -0.14905,2.141371 -0.14905,2.141371 0.96456,2.855973 1.08629,0.697077 2.34892,1.949684 3.2845,3.258461 0.46399,0.649079 0.46399,0.649079 1.56124,-0.03524 0.60348,-0.376385 2.00052,-1.164287 3.10453,-1.750892 10.39039,-5.520793 15.27108,-10.478428 17.7603,-18.040252 0.78801,-2.393805 0.77017,-2.458169 -1.01389,-3.659163 -0.78076,-0.525581 -2.27404,-1.755053 -3.31839,-2.73215 -1.04434,-0.977097 -2.05903,-1.776543 -2.25485,-1.776543 -0.19583,0 -0.35605,-0.110923 -0.35605,-0.246557 0,-0.1356 -1.28027,-1.5658 -2.84504,-3.1782177 -3.50313,-3.6097969 -5.05344,-5.402588 -6.29611,-7.2808148 -0.52753,-0.7973477 -1.14376,-1.65503607 -1.36938,-1.90597507 -0.22563,-0.25093867 -0.64581,-0.90330934 -0.93374,-1.44970601 -0.28792,-0.54640962 -1.15209,-2.17649072 -1.92036,-3.62239582 -0.76826,-1.4459055 -1.79063,-3.5535703 -2.27191,-4.6836973 -0.4813,-1.1301163 -1.01282,-2.1580153 -1.18119,-2.2842153 -0.40737,-0.305334 -0.57344,-2.558801 -0.18856,-2.558604 0.15334,7e-5 0.27928,0.22595 0.27988,0.501959 10e-4,0.525176 1.36979,3.368633 1.91398,3.9764023 0.17339,0.193657 0.31526,0.4972176 0.31526,0.6745667 0,0.9213914 3.93339,7.2057647 6.82579,10.9055975 2.97577,3.8064319 10.86108,11.2953715 11.81512,11.2211905 0.43415,-0.03373 0.53995,0.06386 0.53995,0.498076 0,0.421995 0.34882,0.772498 1.59552,1.603227 3.54051,2.359172 3.82055,3.023865 2.75008,6.527469 -2.76206,9.040218 -8.34508,14.488523 -20.23671,19.748467 -1.11241,0.492048 -1.95154,0.997415 -1.95154,1.175321 0,0.192185 -0.13476,0.260396 -0.35071,0.177523 -0.80596,-0.309275 -1.16792,0.216051 -0.93811,1.361537 0.11776,0.586942 0.25654,1.290776 0.30841,1.564085 0.14787,0.779197 3.1047,2.133861 8.22898,3.770121 0.98135,0.313354 2.08537,0.649659 2.45337,0.747334 3.84146,1.019623 4.19216,4.258066 0.89407,8.256107 -0.37455,0.454043 -2.618,5.590012 -3.16625,7.248573 -1.80137,5.44944 -2.05018,6.953172 -2.45403,14.831725 -0.0975,1.901342 -0.17796,3.603923 -0.17887,3.78351 -8.9e-4,0.17958 0.54721,0.633077 1.21804,1.007777 2.99109,1.670648 3.36328,6.216674 0.88767,10.842357 -0.36408,0.680277 -0.95255,0.545427 -0.8234,-0.18869 0.81088,-4.609063 0.88166,-5.2222 0.73679,-6.381741 -0.18551,-1.484774 -1.01977,-2.491898 -2.25637,-2.723885 -2.7123,-0.508817 -2.1127,-10.84575 1.21508,-20.948013 0.87931,-2.669375 2.77767,-6.911736 4.94021,-11.040149 1.08207,-2.065742 1.0371,-2.108083 -3.80085,-3.578352 -1.28802,-0.391442 -3.58621,-1.315059 -5.10709,-2.052483 -3.14192,-1.523424 -2.87493,-1.576857 -4.1751,0.835632 -0.70362,1.305601 -3.2242,4.927349 -4.26709,6.131287 -0.40185,0.463918 -0.72485,1.085563 -0.72485,1.395058 0,1.86819 -1.13716,3.39413 -2.78417,3.736044 -1.16325,0.241493 -1.16325,0.241493 -1.06339,1.292063 0.13357,1.405187 -0.49992,2.277249 -1.65428,2.277249 -1.83925,0 -3.01717,-1.942753 -2.08874,-3.444978 0.47404,-0.767004 0.48085,-0.842158 0.14123,-1.557826 -0.83774,-1.765416 -0.11965,-3.971498 1.61614,-4.965019 0.57089,-0.326776 1.08086,-0.627497 1.13325,-0.668285 0.0524,-0.0408 -0.19853,-0.38655 -0.55759,-0.768383 -1.43875,-1.529985 -3.18833,-1.633675 -4.80302,-0.284644 -0.50065,0.418274 -1.00114,0.760501 -1.1122,0.760501 -0.47851,0 -0.1401,0.378819 0.56675,0.634417 1.84147,0.665886 2.61199,5.213164 1.0888,6.425726 -0.18953,0.150888 -0.32845,0.659163 -0.33525,1.226691 -0.0228,1.900725 -0.96734,2.885947 -2.24199,2.338587 -0.88142,-0.378483 -1.73361,-1.159407 -1.73361,-1.588611 0,-0.172272 -0.21065,-0.460765 -0.46813,-0.641105 -1.97692,-1.384695 -2.29662,-4.622513 -0.63233,-6.404155 0.82973,-0.888219 0.82063,-1.02397 -0.0942,-1.406243 -1.37872,-0.576058 -3.04291,-3.010952 -3.04291,-4.452106 0,-1.16176 -0.48683,-1.398176 -1.69814,-0.824633 -0.59938,0.283787 -1.43824,0.663197 -1.86413,0.84312 -0.4259,0.179934 -1.87118,1.032407 -3.21173,1.894397 -4.09619,2.633884 -8.23426,4.409951 -11.35328,4.872849 -3.41419,0.506699 -3.34695,0.484028 -3.5793,1.207184 -0.46546,1.448768 -0.3059,10.067363 0.23,12.423534 1.06949,4.702129 2.9097,10.134825 4.5002,13.285601 1.05347,2.086868 0.79342,3.554822 -0.71809,4.053659 -2.31547,0.764174 -2.41996,2.458375 -0.39619,6.424264 1.25902,2.467245 1.67373,3.890246 1.00583,3.451289 z m 21.94618,-37.087642 c 0.3423,-0.615594 0.46036,-0.670951 1.19183,-0.558857 1.03519,0.15863 1.36925,-2.820877 0.3584,-3.196636 -1.57728,-0.586316 -3.36028,1.625794 -2.84695,3.532129 0.29459,1.094047 0.7673,1.175483 1.29672,0.223364 z m 8.82653,-1.009909 c 1.28381,0.240182 2.6345,-2.215054 1.59372,-2.896993 -1.05257,-0.689671 -2.66954,0.2884 -3.47058,2.099297 -0.53173,1.202049 -0.39597,1.481652 0.49556,1.02062 0.42595,-0.22027 0.94649,-0.30428 1.3813,-0.222924 z m 4.68162,-4.817261 c 0.20285,-1.94069 -1.66289,-3.634614 -2.88559,-2.61987 -0.33864,0.281051 -0.44725,0.761498 -0.12746,0.563864 0.47611,-0.294253 1.06321,0.516575 0.62166,0.85857 -0.39082,0.302727 -0.36837,0.340721 0.38805,0.656776 0.52968,0.221313 0.93152,0.605255 1.181,1.128402 0.52353,1.09786 0.65606,1.003129 0.82234,-0.587742 z m 2.15391,-3.715888 c 1.77463,-1.608512 2.29957,-4.306851 1.04108,-5.351313 -0.37205,-0.308777 -0.66807,-0.03674 -0.93299,0.857469 -0.0909,0.306667 -0.32441,0.738722 -0.51899,0.960116 -0.22529,0.256317 -0.35839,0.840523 -0.36643,1.608338 -0.007,0.663197 -0.13696,1.330138 -0.28892,1.482104 -0.15196,0.151954 -0.27629,0.456952 -0.27629,0.677755 0,0.220803 -0.15379,0.401456 -0.34174,0.401456 -0.35883,0 -0.80153,0.867761 -0.60877,1.193251 0.0618,0.104317 0.32599,-0.01356 0.58716,-0.26188 0.26118,-0.248319 1.02883,-0.953602 1.70589,-1.567296 z m -3.64331,-14.783483 c -3.69255,0.523784 -9.78519,3.141256 -11.99327,4.363357 -1.69597,0.938638 -4.21775,2.998318 -4.21775,3.603574 0,0.888161 0.11128,1.824342 0.91508,0.626489 4.5656,-6.804046 16.78883,-8.189043 15.29594,-8.59342 z m -19.02639,5.362279 c -4.47244,-1.762796 -18.83944,-9.073322 -21.79281,-14.884647 -0.54265,-1.067783 -1.05987,-2.008322 -0.6502,-2.511127 5.18916,-6.368862 17.29337,-19.581489 18.88789,-21.5794708 -1.639,0.9582264 -15.64398,17.0761448 -19.29948,21.3765868 -0.52413,0.616614 0.0522,1.646066 0.82079,2.995607 3.99217,7.008912 18.07445,13.227048 22.05235,14.789545 0.58425,0.229496 0.78706,0.131033 -0.0186,-0.186494 z m -23.9707,-19.577481 c -1.62379,2.395532 -0.0985,5.597187 0.72254,6.682773 6.02895,7.971207 23.78019,17.442159 24.56702,17.398451 0.0608,-0.0035 -0.11335,-0.222484 -0.55501,-0.512657 -3.3748,-2.217233 -20.42996,-11.039685 -24.01501,-17.373369 -0.79593,-1.40615 -1.98702,-4.378112 -0.47893,-6.152614 3.54397,-4.170023 17.21689,-18.5326104 17.98616,-20.0534375 -1.07651,1.8077778 -16.28438,17.1452945 -18.22677,20.0108535 z m 74.86,65.487152 c -0.048,-0.153337 -0.13985,-1.984988 -0.20411,-4.070336 -0.22227,-7.213234 -1.13057,-9.032824 -4.50902,-9.032824 -3.63988,0 -1.99744,-5.609926 4.8356,-16.516422 2.81097,-4.486705 3.60513,-6.01181 4.05631,-7.337682 1.33903,-3.934987 -1.71466,-4.620497 -15.78674,-5.920093 -5.99307,-0.553479 -10.46911,-1.245352 -10.91749,-1.687549 -0.27728,-0.273471 0.71861,-0.268163 2.4511,0.0131 0.74089,0.120277 4.48984,0.421126 8.33099,0.668564 13.80347,0.889181 17.52475,1.951609 17.91193,5.113832 0.20133,1.644304 -4.26808,9.341912 -5.20389,10.900399 -5.0652,8.435554 -6.65381,12.751852 -4.69758,12.763489 3.38127,0.02017 4.84223,2.817458 4.83148,9.250965 -0.007,4.381716 -0.58909,7.482048 -1.0986,5.854597 z m -47.3322,-6.650341 c -3.40323,-1.684591 -3.5037,-8.539517 -0.17378,-11.856407 0.83467,-0.831401 0.83467,-0.831401 0.46792,-1.791715 -0.20171,-0.528177 -0.36675,-1.232973 -0.36675,-1.566206 0,-0.692254 -0.50289,-0.801763 -1.21355,-0.264244 -0.49416,0.373765 -0.79375,0.420337 -0.79375,0.123417 0,-0.25328 2.08654,-1.803259 2.42749,-1.803259 0.1369,0 0.24928,0.275998 0.24975,0.613334 0.002,1.265752 0.81125,2.158399 1.48022,1.632192 1.05207,-0.827553 2.37333,-0.198247 2.26603,1.079303 -0.0523,0.622584 -0.20555,0.864192 -0.69681,1.098533 -0.61474,0.293256 -0.62007,0.311141 -0.22331,0.749559 1.61507,1.784622 5.37161,2.258102 7.93439,1.000058 1.16843,-0.573578 1.6408,-1.04321 1.04927,-1.04321 -0.48017,0 -1.32797,-1.103122 -1.32064,-1.71838 0.0221,-1.858153 2.32182,-2.148535 2.77319,-0.350155 0.15151,0.603702 0.16304,0.60777 0.48901,0.172481 1.05132,-1.403936 1.18681,-1.968346 0.7218,-3.006977 -0.26804,-0.598672 -0.35578,-1.05217 -0.22826,-1.179691 0.2462,-0.246198 4.63798,2.021083 4.82289,2.489846 0.24592,0.623441 -0.51048,1.362303 -1.39837,1.365954 -0.90668,0.0035 -1.70998,0.391545 -1.22154,0.589735 0.15333,0.06224 0.27879,0.300767 0.27879,0.530112 0,1.800744 0.6993,1.849796 2.26943,0.159176 2.42667,-2.612905 1.66317,-5.38189 -1.83575,-6.657656 -2.1087,-0.76887 -1.53928,-1.4812 1.01474,-1.269403 5.22739,0.433504 6.46289,7.360725 1.72209,9.655569 -2.03885,0.986937 -1.95736,0.809704 -1.38454,3.010953 0.54106,2.079257 -0.39863,5.600919 -1.8118,6.79002 -2.43145,2.045928 -6.00041,1.420581 -6.35641,-1.113726 -0.20841,-1.483762 -0.24302,-1.522753 -0.89582,-1.009261 -0.75065,0.590465 -1.64057,0.586953 -2.81287,-0.01159 -0.92879,-0.47384 -0.92879,-0.47384 -1.33354,0.05575 -1.96725,2.574064 -2.40163,3.033931 -3.29168,3.484788 -1.21718,0.616537 -1.4374,0.619957 -2.60784,0.0406 z m 14.51384,-2.749102 c 1.99012,-0.831529 2.78181,-3.057964 2.25338,-6.337068 -0.41271,-2.56092 -0.66458,-3.115408 -1.08333,-2.384892 -1.1889,2.074099 -3.73642,3.603156 -6.40652,3.845263 -1.26721,0.114864 -2.72358,1.628796 -2.13405,2.218322 0.40375,0.403751 3.38367,-0.557397 3.44873,-1.11236 0.13998,-1.194225 1.58392,0.506271 1.60708,1.892635 0.0104,0.62467 0.88088,2.188986 1.21804,2.188986 0.19393,0 0.68743,-0.139899 1.09667,-0.310886 z m -11.16313,-2.497681 c 2.99563,-2.845577 2.86164,-2.514279 1.34467,-3.324852 -0.70514,-0.376791 -1.81239,-1.278084 -2.53447,-2.063053 -1.66336,-1.808244 -1.57939,-1.862847 -2.45574,1.596909 -1.4714,5.808857 -0.0428,7.294528 3.64554,3.790996 z m -5.91347,-5.989185 c -5.07577,-1.744969 -4.98998,-7.730434 0.13396,-9.34561 2.1006,-0.662154 3.78919,-0.07754 1.7666,0.611641 -4.28774,1.460986 -5.07801,4.173721 -2.06577,7.091149 0.84711,0.820436 1.5402,1.537345 1.5402,1.593119 0,0.27157 -0.6602,0.295436 -1.37499,0.04972 z m 21.92157,-84.731502 c -0.22448,-0.270481 -0.169,-0.402962 0.30948,-0.738954 0.32064,-0.22515 0.85273,-0.61811 1.18241,-0.873244 0.32967,-0.255124 0.77473,-0.527853 0.98902,-0.606067 1.8854,-0.688176 10.19374,-7.083132 10.65772,-8.203305 0.57927,-1.398489 -1.75787,-3.123987 -4.65674,-3.438049 -2.11998,-0.22967 -2.48536,-0.342424 -1.87073,-0.57731 3.77217,-1.441583 8.90586,2.640469 6.74769,5.365399 -1.28197,1.61862 -11.4311,8.703815 -12.46771,8.703815 -0.12506,0 -0.3152,0.156892 -0.42251,0.348649 -0.17153,0.306504 -0.22816,0.308811 -0.46863,0.01901 z"
       id="path7875-7"
       sodipodi:nodetypes="sssssssssssssssssssssssssssssssssssssssssssssssssssssssssssssssssssssssssssssssssssssssssssssssssssssssssssssssssssssssssssssssssssssssssssssssssssssssssssssssssssscssscssscsssssssssscssssssssssssscsscsssssscsssssssssssscsssssssssscssccsssssssssssssssssssssssssssssssss" />
    <g
       id="g59567"
       transform="translate(-225.55705,1014.7536)">
      <path
         style="fill:#000000;stroke-width:0.192424"
         d="m 99.2797,-695.83619 c -8.751586,1.76173 -31.154314,-2.58609 -35.531442,-10.51041 -0.428746,4.48173 17.891263,11.73755 22.786311,12.27573 4.652593,0.51153 11.321459,-0.0933 12.745131,-1.76532 z m 21.69364,-54.26195 c -1.00695,-1.65569 4.15762,7.81719 3.98777,13.57878 -0.50056,16.97926 -12.68241,17.70757 -12.16566,17.68465 8.97444,-0.39817 19.29977,-12.97609 8.17789,-31.26343 z m -8.57713,29.55332 c 7.59398,-3.00282 8.07914,-7.91363 9.07767,-11.09813 0.65249,-2.08088 2.33877,-13.03623 -6.0503,-21.65814 -1.90304,-1.95586 -5.3736,-3.76593 -8.42886,-4.0686 -2.50506,-0.24816 -5.67278,1.29767 -4.77104,2.99747 0.44529,0.83937 7.13007,6.44519 7.61721,6.81561 5.15731,3.92157 7.99915,11.35037 6.64227,17.36351 -0.10183,0.45132 -2.0033,7.28189 -6.33714,9.83967 -2.36346,1.39488 -1.34384,1.22976 2.25019,-0.19139 z m 0.88988,-12.60825 c 0.59845,-0.27266 0.74335,-0.88415 0.58247,-2.45768 -0.46038,-4.50217 -2.35753,-7.34091 -7.47661,-11.1873 -3.22838,-2.42576 -3.46104,-2.61441 -4.17049,-3.38151 -0.76552,-0.82777 -2.26633,-3.3065 -2.47544,-4.08843 -0.15627,-0.58432 -0.320295,0.51435 -0.301941,1.03019 0.05326,1.49684 1.791501,3.39194 3.106041,4.28334 2.36588,1.60431 4.93874,3.26048 7.77911,6.48864 4.65695,5.29273 2.79497,9.38651 2.95686,9.31275 z m 20.65634,-0.73089 c 1.51713,-18.31273 -6.45115,-27.56879 -11.10103,-31.06907 -0.95823,-0.72133 -2.14925,-1.29399 -3.37386,-1.65308 -0.45891,-0.002 1.43615,1.40645 2.429,2.19779 6.60287,5.26275 11.99124,22.88617 11.24388,30.40613 -0.8807,8.86156 0.50489,3.70462 0.80201,0.11823 z m -24.13508,-24.14414 c -7.16274,-3.62329 -10.446425,0.31775 -9.76157,1.07983 0.42762,0.47584 2.07996,-3.42708 9.76157,-1.07983 z m -16.409362,-30.19771 c 2.395603,0.13821 4.084892,2.15013 4.265732,4.20479 0.0475,0.53914 0.11328,0.58445 0.99622,0.68582 1.45034,0.16651 2.42207,2.4253 3.38022,4.09193 1.29516,2.25283 2.50162,2.0928 4.89173,2.14626 4.09864,0.0917 12.35552,3.80275 18.49174,9.05536 2.47683,2.12017 7.18534,7.47036 8.7347,10.43086 0.76587,1.34218 1.30203,2.38674 2.28778,5.30645 0.54215,1.60583 1.07794,3.56914 1.19062,4.36289 0.11269,0.79375 0.29206,1.91943 0.39863,2.50151 0.71056,3.88126 0.40097,13.08968 -0.57254,17.02955 -0.1046,0.42333 -0.27384,1.15936 -0.37609,1.63561 -3.85486,17.9546 -16.41019,30.7561 -34.54266,35.21988 -3.10397,0.76412 -10.026588,1.05597 -14.54695,0.38833 -54.65018,-8.07158 -48.250606,-68.97916 -19.55306,-81.41389 2.25174,-0.97569 5.748218,-3.3148 11.889118,-4.49966 -0.301187,10.54803 17.41496,5.60113 17.945194,3.59135 -1.344087,2.64186 -19.436994,5.01587 -16.272301,-3.46704 -1.04385,-4.19198 -0.209461,-5.77523 2.201039,-4.67711 6.32966,2.88348 13.58954,1.93979 11.81585,-1.53591 -0.53038,-1.03932 -0.776403,-1.00232 -1.397501,-1.53343 -3.436429,-2.93854 -8.771974,-0.28995 -11.960617,2.19589 -0.667321,-2.15947 4.000022,-6.1334 10.733146,-5.71944 z m -8.989516,13.80488 c 0.242274,-0.55997 -0.144524,-2.32381 0.207264,-2.21332 1.06911,0.3358 1.212063,-0.97696 0.176626,-1.64956 -0.900219,-0.58476 -1.782241,-0.16648 -1.274669,1.27052 0.05459,0.15454 0.04895,1.88542 0.02911,2.0881 0.07376,0.61229 0.70458,0.86735 0.861673,0.50426 z m 13.236419,-1.71017 c -0.311136,-0.31263 -0.206169,-0.85066 0.09936,-0.73555 0.258117,0.0972 0.795026,1.00859 1.084281,1.21761 0.599194,0.43299 0.673154,0.0461 0.673154,-0.48212 0,-0.34609 -0.70959,-3.72794 -1.591778,-3.57083 -0.367336,0.0654 0.105819,1.75373 0.177649,2.17456 -0.306671,-0.21886 -0.485991,-0.48805 -0.958601,-0.53213 -0.77724,-0.0725 -1.430452,0.26929 -1.005426,0.77155 0.535672,0.63301 1.343401,1.93985 1.444333,2.14152 0.284075,0.56758 0.941407,0.21581 0.712617,-0.34597 z"
         id="path7875-5"
         sodipodi:nodetypes="ccscsssssssssssssssssssssssscssscsccssssscsssssssscccsssccsssscssssscssscsss" />
      <path
         style="fill:#ffffff;fill-rule:evenodd;stroke:none;stroke-width:1;stroke-linecap:round;stroke-linejoin:bevel;paint-order:markers fill stroke;stop-color:#000000"
         d="m 67.979611,-765.82481 c -8.020514,2.00018 -12.014452,18.06327 -12.249101,21.14467 -0.47559,6.24544 0.223387,5.72958 3.468952,2.81159 3.415347,-3.07065 3.804972,-4.01881 4.493445,-8.35774 0.166132,-1.04711 0.539379,-2.04332 0.647012,-3.1043 0.04588,-0.45204 -0.108585,-1.10567 -0.03593,-1.56371 0.144172,-0.90914 1.078151,-1.25331 1.527757,-1.93345 0.360972,-0.54602 0.267362,-0.99996 0.39542,-1.59451 0.06456,-0.29977 0.48649,-0.5538 0.647065,-0.8088 0.145997,-0.23188 0.01958,-0.49514 0.197723,-0.75491 0.58338,-0.85013 1.289637,-4.68118 0.907657,-5.83884 z"
         id="path50472"
         sodipodi:nodetypes="csssssssscc" />
      <path
         id="path53718-3"
         style="fill:#ffffff;fill-rule:evenodd;stroke:#000000;stroke-width:1;stroke-linecap:round;stroke-linejoin:bevel;paint-order:markers fill stroke;stop-color:#000000"
         d="m 121.27162,-803.54196 c -3.7756,-1.58756 -17.96852,-5.01402 -22.471799,-1.13015 -2.71114,2.33823 13.996729,-1.9111 12.621719,6.62297 -0.91694,5.69105 -7.77156,5.26548 -12.045569,5.0473 -5.46015,-0.27874 -10.2264,-4.25724 -14.66719,-5.68227 -3.29316,-1.05676 -11.504659,2.98858 -6.118559,6.84673 2.034594,1.45741 16.310974,8.26144 13.812006,8.50319 l -3.085083,0.29846 c -1.87088,0.18099 -3.104515,-0.91816 -5.030064,-1.66432 -3.113115,-1.20635 -7.979015,-4.37664 -10.30946,-8.02084 -2.193718,-3.43039 2.84179,-10.31013 10.09297,-8.84232 7.26618,1.47084 13.525412,6.42981 20.030529,6.12891 4.5269,-0.2094 5.73246,-5.55456 0.69613,-5.63556 -4.05733,-0.0652 -10.352995,0.56373 -9.584199,-3.76338 0.778122,-4.3796 9.423479,-5.85232 25.598309,-1.41897"
         sodipodi:nodetypes="csssssssssssssc" />
      <path
         style="fill:#ffffff;fill-rule:evenodd;stroke:#000000;stroke-width:1;stroke-linecap:round;stroke-linejoin:bevel;paint-order:markers fill stroke;stop-color:#000000"
         d="m 127.00399,-806.20569 c -0.0359,-0.34663 -0.17465,-0.69786 -0.10781,-1.03989 0.10676,-0.54644 1.68346,-2.37379 2.04901,-2.81929 0.97068,-1.18304 0.6427,-0.82498 1.76144,-1.99507 0.82171,-0.85947 1.50796,-1.84658 2.33658,-2.68835 0.48663,-0.49435 1.00029,-0.94829 1.50977,-1.41735 0.006,-0.006 1.07823,-0.95586 1.13239,-0.7934 0.20852,0.62555 -0.76647,1.59308 -1.09643,2.00276 -1.00373,1.24632 -2.04933,2.47423 -3.25324,3.55108 -0.84386,0.75483 -1.8687,1.59499 -2.42647,2.57281 -0.22706,0.39806 -0.77838,0.53001 -1.00653,0.90895 -0.13237,0.21981 -0.55858,0.54933 -0.59314,0.8011 -0.0389,0.2834 0.37507,0.0435 0.0899,0.42368 -0.12639,0.16851 -0.26363,0.32864 -0.39545,0.49297 z"
         id="path59381" />
      <path
         style="fill:#ffffff;fill-rule:evenodd;stroke:#000000;stroke-width:1;stroke-linecap:round;stroke-linejoin:bevel;paint-order:markers fill stroke;stop-color:#000000"
         d="m 128.60366,-803.1861 c 1.98676,-0.12642 3.90806,0.21407 5.85949,0.53149 1.65375,0.269 3.33645,0.33838 4.99669,0.57002 2.89157,0.40346 -1.79179,-0.0905 3.09149,0.5007 1.45415,0.17605 3.6716,-0.0636 5.05063,0.59314 0.0669,0.0319 -0.1416,0.0552 -0.21568,0.0539 -1.1515,-0.0193 -0.25779,-0.0145 -1.49183,-0.10014 -1.29193,-0.0896 -2.5541,0.45206 -3.81042,0.67786 -1.29995,0.23363 -4.39635,-0.0594 -5.75165,-0.37746 -0.49144,-0.11535 -0.77951,-0.51231 -1.2042,-0.65476 -0.48702,-0.16335 -1.01729,-0.14796 -1.50984,-0.29271 -0.39846,-0.11708 -0.72753,-0.37692 -1.11437,-0.493 -1.34922,-0.40476 -2.73823,-0.1179 -3.90031,-1.00906 z"
         id="path59383" />
      <path
         style="fill:#ffffff;fill-rule:evenodd;stroke:#000000;stroke-width:1;stroke-linecap:round;stroke-linejoin:bevel;paint-order:markers fill stroke;stop-color:#000000"
         d="m 125.33244,-800.88293 c -1.76081,1.83253 -3.15352,4.0146 -4.13396,6.36267 -0.33113,0.79301 -0.46969,1.665 -0.79084,2.46496 -0.0214,0.0535 -1.35274,3.22133 -1.3121,3.29687 0.17008,0.31594 0.52758,-0.4976 0.71898,-0.8011 0.51451,-0.81593 1.3144,-1.31107 1.95914,-2.01049 1.42483,-1.54573 2.33166,-2.92071 2.67808,-4.99923 0.0873,-0.52395 -0.1642,-1.11019 -0.25162,-1.60993 -0.15417,-0.88125 0.66355,-2.05079 1.13232,-2.70375 z"
         id="path59385" />
      <path
         style="fill:#ffffff;fill-rule:evenodd;stroke:#000000;stroke-width:1;stroke-linecap:round;stroke-linejoin:bevel;paint-order:markers fill stroke;stop-color:#000000"
         d="m 130.25728,-806.60624 c 1.18941,-0.14899 2.24843,-0.6913 3.36106,-1.09382 0.96888,-0.35052 1.92934,-0.70842 2.89377,-1.07071 0.58127,-0.21836 1.14845,-0.40243 1.7435,-0.57002 0.61749,-0.17391 2.19239,-0.96314 2.73201,-0.61624 0.19124,0.12295 -0.43003,0.14803 -0.64709,0.21569 -0.81685,0.25458 -1.11043,0.93199 -1.86923,1.18626 -2.35492,0.78904 -5.68695,3.49607 -8.21402,1.94884 z"
         id="path59387" />
      <path
         style="fill:#ffffff;fill-rule:evenodd;stroke:#000000;stroke-width:1;stroke-linecap:round;stroke-linejoin:bevel;paint-order:markers fill stroke;stop-color:#000000"
         d="m 122.09716,-809.87231 c -2.87578,-0.95697 -3.46427,-3.05856 -5.24835,-5.05315 -0.44061,-0.4926 -1.70585,-1.59723 -1.86923,-2.15683 -0.13335,-0.45669 2.3042,1.58642 2.39048,1.64074 1.23368,0.77658 4.43225,4.12834 4.7271,5.56924 z"
         id="path59391" />
      <path
         style="fill:#ffffff;fill-rule:evenodd;stroke:#000000;stroke-width:1;stroke-linecap:round;stroke-linejoin:bevel;paint-order:markers fill stroke;stop-color:#000000"
         d="m 118.59231,-800.35141 c -2.23703,0.43836 -4.22871,2.50407 -5.6438,4.25204 -0.27774,0.34308 -0.2331,0.93892 -0.61108,1.22478 -0.14534,0.10991 -0.44122,0.55383 -0.39545,0.37743 0.14748,-0.56817 2.64633,-1.84955 3.19934,-2.12601 0.30266,-0.15134 0.46403,-0.47172 0.70101,-0.69326 1.18949,-1.11218 1.86174,-1.58036 2.74998,-3.03498 z"
         id="path59393" />
      <path
         style="fill:#ffffff;fill-rule:evenodd;stroke:#000000;stroke-width:1;stroke-linecap:round;stroke-linejoin:bevel;paint-order:markers fill stroke;stop-color:#000000"
         d="m 129.64615,-799.2576 c 1.20997,1.56575 3.13169,2.4796 4.49344,3.89001 0.25877,0.26802 0.16188,0.57653 0.3415,0.87043 0.22077,0.36123 0.56568,0.56623 0.68302,0.99369 0.0449,0.16344 -0.16946,0.5084 0,0.5084 0.0476,0 -0.72644,-0.45357 -0.82679,-0.5007 -0.59452,-0.27903 -1.8374,-0.46246 -2.15686,-1.08611 -0.44521,-0.86916 -1.90669,-1.08937 -2.33659,-2.01049 -0.10329,-0.22132 -0.0423,-0.45836 -0.16176,-0.67786 -0.2168,-0.39825 -1.43905,-2.26058 -0.59315,-2.44184 0.16468,-0.0353 0.0577,-0.21019 0.55719,0.45447 z"
         id="path59395" />
    </g>
    <path
       style="fill:none;fill-rule:evenodd;stroke:#000000;stroke-width:1;stroke-linecap:round;stroke-linejoin:bevel;paint-order:markers fill stroke;stop-color:#000000"
       d="m -430.37387,-78.200833 c -28.96838,2.618277 9.99733,27.875459 6.0957,2.388563 -0.96059,-2.276489 -3.84709,-3.289371 -6.0957,-2.388563 z"
       id="path59604"
       sodipodi:nodetypes="ccc" />
    <path
       style="fill:none;fill-rule:evenodd;stroke:#000000;stroke-width:1;stroke-linecap:round;stroke-linejoin:bevel;paint-order:markers fill stroke;stop-color:#000000"
       d="m -430.37387,-78.200833 c 6.81952,-8.522577 24.9958,-51.489377 35.58812,-64.797487"
       id="path59606"
       sodipodi:nodetypes="cc" />
    <path
       style="fill:none;fill-rule:evenodd;stroke:#000000;stroke-width:1;stroke-linecap:round;stroke-linejoin:bevel;paint-order:markers fill stroke;stop-color:#000000"
       d="m -423.48731,-72.577019 c 18.94024,-7.901618 111.05166,-61.257621 138.91679,-69.743461"
       id="path59608"
       sodipodi:nodetypes="cc" />
    <path
       style="fill:none;fill-rule:evenodd;stroke:#000000;stroke-width:1;stroke-linecap:round;stroke-linejoin:bevel;paint-order:markers fill stroke;stop-color:#000000"
       d="m -436.14342,-77.777171 c -3.58668,-2.961878 -53.25783,-47.011589 -72.45285,-66.211269"
       id="path59610"
       sodipodi:nodetypes="cc" />
    <path
       style="fill:none;fill-rule:evenodd;stroke:#000000;stroke-width:1;stroke-linecap:round;stroke-linejoin:bevel;paint-order:markers fill stroke;stop-color:#000000"
       d="m -441.11831,-70.727835 c -20.28615,9.417384 -35.22033,20.524759 -68.36709,38.882898"
       id="path59612"
       sodipodi:nodetypes="cc" />
    <path
       style="fill:none;fill-rule:evenodd;stroke:#000000;stroke-width:1;stroke-linecap:round;stroke-linejoin:bevel;paint-order:markers fill stroke;stop-color:#000000"
       d="m -437.23987,-65.883765 c -5.81644,13.304856 -70.49299,130.249713 -70.49299,130.249713"
       id="path59614"
       sodipodi:nodetypes="cc" />
    <path
       style="fill:none;fill-rule:evenodd;stroke:#000000;stroke-width:1;stroke-linecap:round;stroke-linejoin:bevel;paint-order:markers fill stroke;stop-color:#000000"
       d="m -507.73286,64.365948 c 12.54545,-16.736611 60.58309,-106.253738 103.6342,-119.94198 21.39459,-20.151139 337.833896,-89.033118 326.621876,-87.822218"
       id="path59616"
       sodipodi:nodetypes="ccc" />
    <path
       style="fill:none;fill-rule:evenodd;stroke:#000000;stroke-width:1;stroke-linecap:round;stroke-linejoin:bevel;paint-order:markers fill stroke;stop-color:#000000"
       d="m -394.5285,-87.838997 c -11.39693,4.829165 -22.85953,-2.053769 -23.12125,-14.518523"
       id="path64523"
       sodipodi:nodetypes="cc" />
    <path
       style="fill:none;fill-rule:evenodd;stroke:#000000;stroke-width:1;stroke-linecap:round;stroke-linejoin:bevel;paint-order:markers fill stroke;stop-color:#000000"
       d="m -404.09866,-55.576032 c -20.15589,-3.105578 -30.12725,1.148628 -46.61988,15.859712"
       id="path64521"
       sodipodi:nodetypes="cc" />
    <path
       style="fill:none;fill-rule:evenodd;stroke:#000000;stroke-width:1;stroke-linecap:round;stroke-linejoin:bevel;paint-order:markers fill stroke;stop-color:#000000"
       d="m -462.37284,-19.156444 c 9.14146,-7.153862 18.44472,-13.525537 26.13909,-14.464813"
       id="path64519"
       sodipodi:nodetypes="cc" />
    <path
       style="fill:none;fill-rule:evenodd;stroke:#000000;stroke-width:1;stroke-linecap:round;stroke-linejoin:bevel;paint-order:markers fill stroke;stop-color:#000000"
       d="m -394.5285,-87.838997 c -7.63487,13.042993 -18.15408,22.156071 -9.57016,32.262965"
       id="path64517"
       sodipodi:nodetypes="cc" />
    <path
       style="fill:none;fill-rule:evenodd;stroke:#000000;stroke-width:1;stroke-linecap:round;stroke-linejoin:bevel;paint-order:markers fill stroke;stop-color:#000000"
       d="m -407.7542,-121.38857 c 6.29455,16.22394 23.01798,23.74187 52.44541,13.25976"
       id="path64523-5"
       sodipodi:nodetypes="cc" />
    <path
       style="fill:none;fill-rule:evenodd;stroke:#000000;stroke-width:1;stroke-linecap:round;stroke-linejoin:bevel;paint-order:markers fill stroke;stop-color:#000000"
       d="m -475.48255,4.7883474 c 4.07275,-1.9501238 8.5965,-5.15702943 7.93873,-1.0914548"
       id="path64519-6"
       sodipodi:nodetypes="cc" />
    <path
       style="fill:none;fill-rule:evenodd;stroke:#000000;stroke-width:1;stroke-linecap:round;stroke-linejoin:bevel;paint-order:markers fill stroke;stop-color:#000000"
       d="m -359.12315,-73.319748 c -11.29514,-1.554523 -9.90424,-20.623102 3.81436,-34.809062"
       id="path64517-2"
       sodipodi:nodetypes="cc" />
    <path
       style="fill:none;fill-rule:evenodd;stroke:#000000;stroke-width:1;stroke-linecap:round;stroke-linejoin:bevel;paint-order:markers fill stroke;stop-color:#000000"
       d="m -394.78575,-142.99832 c 6.29455,16.22394 53.13307,22.86985 82.5605,12.38774"
       id="path64523-5-9"
       sodipodi:nodetypes="cc" />
    <path
       style="fill:none;fill-rule:evenodd;stroke:#000000;stroke-width:1;stroke-linecap:round;stroke-linejoin:bevel;paint-order:markers fill stroke;stop-color:#000000"
       d="m -313.87288,-85.49559 c -11.29514,-1.554523 -12.07097,-30.92903 1.64763,-45.11499"
       id="path64517-2-1"
       sodipodi:nodetypes="cc" />
    <path
       style="fill:none;fill-rule:evenodd;stroke:#000000;stroke-width:1;stroke-linecap:round;stroke-linejoin:bevel;paint-order:markers fill stroke;stop-color:#000000"
       d="m -404.09866,-55.576032 c -3.82209,-1.638945 -18.40484,-9.783058 -21.34191,-10.730499"
       id="path64515"
       sodipodi:nodetypes="cc" />
    <path
       style="fill:none;fill-rule:evenodd;stroke:#000000;stroke-width:1;stroke-linecap:round;stroke-linejoin:bevel;paint-order:markers fill stroke;stop-color:#000000"
       d="m -507.73286,64.365948 c 18.59723,-49.573778 14.67547,-78.081418 -1.75254,-96.210885"
       id="path64513"
       sodipodi:nodetypes="cc" />
    <path
       style="fill:none;fill-rule:evenodd;stroke:#000000;stroke-width:1;stroke-linecap:round;stroke-linejoin:bevel;paint-order:markers fill stroke;stop-color:#000000"
       d="m -509.4854,-31.844937 c 31.6625,-3.66789 31.67692,17.200267 34.00285,36.6332844"
       id="path64511"
       sodipodi:nodetypes="cc" />
    <path
       style="fill:none;fill-rule:evenodd;stroke:#000000;stroke-width:1;stroke-linecap:round;stroke-linejoin:bevel;paint-order:markers fill stroke;stop-color:#000000"
       d="m -508.59627,-143.98844 c 45.08494,16.03186 84.69615,11.1132 113.81052,0.99012"
       id="path64509"
       sodipodi:nodetypes="cc" />
    <path
       style="fill:none;fill-rule:evenodd;stroke:#000000;stroke-width:1;stroke-linecap:round;stroke-linejoin:bevel;paint-order:markers fill stroke;stop-color:#000000"
       d="m -482.06803,-119.02144 c 34.10701,9.76609 56.38669,4.48244 74.31383,-2.36713"
       id="path64507"
       sodipodi:nodetypes="cc" />
    <path
       style="fill:none;fill-rule:evenodd;stroke:#000000;stroke-width:1;stroke-linecap:round;stroke-linejoin:bevel;paint-order:markers fill stroke;stop-color:#000000"
       d="m -462.37284,-19.156444 c 6.67136,-27.854311 -8.53965,-29.808475 -15.32363,-30.430504"
       id="path64505"
       sodipodi:nodetypes="cc" />
    <path
       style="fill:none;fill-rule:evenodd;stroke:#000000;stroke-width:1;stroke-linecap:round;stroke-linejoin:bevel;paint-order:markers fill stroke;stop-color:#000000"
       d="m -459.50128,-61.243422 c 7.50576,-13.650964 7.46028,-24.641882 2.23726,-35.065625"
       id="path64503"
       sodipodi:nodetypes="cc" />
    <path
       style="fill:none;fill-rule:evenodd;stroke:#000000;stroke-width:1;stroke-linecap:round;stroke-linejoin:bevel;paint-order:markers fill stroke;stop-color:#000000"
       d="m -509.4854,-31.844937 c 17.92928,-28.137153 17.30809,-73.607153 0.88913,-112.143503"
       id="path64501"
       sodipodi:nodetypes="cc" />
    <path
       style="fill:none;fill-rule:evenodd;stroke:#000000;stroke-width:1;stroke-linecap:round;stroke-linejoin:bevel;paint-order:markers fill stroke;stop-color:#000000"
       d="m -457.26402,-96.309047 c 16.74591,5.099935 30.34115,5.35739 39.61427,-6.048473"
       id="path64499"
       sodipodi:nodetypes="cc" />
    <path
       style="fill:none;fill-rule:evenodd;stroke:#000000;stroke-width:1;stroke-linecap:round;stroke-linejoin:bevel;paint-order:markers fill stroke;stop-color:#000000"
       d="m -477.69647,-50.116115 c 13.83253,-24.173228 6.42341,-52.180535 -4.37156,-68.905325"
       id="path64497"
       sodipodi:nodetypes="cc" />
    <path
       style="fill:none;fill-rule:evenodd;stroke:#000000;stroke-width:1;stroke-linecap:round;stroke-linejoin:bevel;paint-order:markers fill stroke;stop-color:#000000"
       d="m -450.71854,-39.71632 c 3.04222,-13.52212 -4.55978,-21.525404 -8.78274,-21.527102"
       id="path63926"
       sodipodi:nodetypes="cc" />
    <path
       style="fill:none;fill-rule:evenodd;stroke:#000000;stroke-width:0.202878;stroke-linecap:round;stroke-linejoin:bevel;stroke-miterlimit:4;stroke-dasharray:none;paint-order:markers fill stroke;stop-color:#000000"
       d="m -301.18401,-143.32929 c -0.56346,15.81943 1.32572,111.738153 -1.79172,120.319632 -2.37167,6.528567 -6.46188,24.9919438 -2.81512,30.1561898 0.96611,1.3681321 7.05189,12.4987792 21.77374,3.4080162 4.48298,-2.7682485 9.31649,-20.2508624 8.46999,-26.320433 -1.21892,-8.739672 -10.44907,-15.017439 -17.36635,-10.445509 -8.48919,5.61089 -24.56882,22.57961 -17.28212,35.7558823 4.00271,7.2379697 12.26779,9.6964767 19.11245,9.2259247 6.60257,-0.453908 11.79327,-0.156278 21.33484,-8.9094917 7.68195,-7.0472411 7.65743,-26.1944183 2.40947,-33.8357193 -5.02457,-7.316045 -10.77449,-5.041486 -14.51589,-1.411411 -14.99299,14.546886 -15.57317,31.3733714 -12.92049,42.11648 2.48937,10.081763 11.93739,11.788791 21.29713,5.58371 9.38666,-6.222925 15.352,-13.9869238 12.62903,-27.3976781 -8.19906,-40.3808639 -34.68824,1.9790368 -25.79489,13.612115"
       id="path70600"
       sodipodi:nodetypes="csssssssssssssc" />
  </g>
</svg>
